<?xml version="1.0" standalone="no"?>
<!DOCTYPE svg PUBLIC "-//W3C//DTD SVG 20010904//EN"
 "http://www.w3.org/TR/2001/REC-SVG-20010904/DTD/svg10.dtd">
<svg version="1.0" xmlns="http://www.w3.org/2000/svg"
 width="300.000000pt" height="300.000000pt" viewBox="0 0 300.000000 300.000000"
 preserveAspectRatio="xMidYMid meet">
<metadata>
Created by potrace 1.15, written by Peter Selinger 2001-2017
</metadata>
<g transform="translate(0.000000,300.000000) scale(0.100000,-0.100000)"
fill="#5E4FB3" stroke="none">
<path d="M965 2774 c-22 -2 -96 -9 -164 -15 -289 -25 -528 -86 -643 -165 -65
-46 -68 -59 -68 -364 0 -282 3 -305 45 -340 14 -12 13 -16 -12 -42 l-28 -29 0
-299 0 -299 28 -29 c25 -26 26 -30 12 -42 -42 -35 -45 -58 -45 -342 0 -321 -1
-319 98 -378 112 -68 334 -123 612 -152 163 -16 629 -16 790 0 161 17 173 20
163 41 -4 9 -9 148 -11 310 l-3 293 -52 -6 c-159 -19 -276 -26 -487 -26 -320
0 -556 23 -756 76 -97 25 -216 73 -228 92 -4 6 5 19 19 28 24 16 30 15 133
-14 190 -55 344 -77 628 -92 207 -11 504 -1 673 21 76 10 88 15 116 45 18 19
37 34 44 34 7 0 11 37 11 118 0 206 38 317 146 432 35 37 64 69 64 72 0 2 -49
-8 -110 -24 -419 -105 -1075 -104 -1497 2 -105 27 -233 82 -233 101 0 5 12 15
27 22 24 13 33 12 81 -4 76 -26 262 -64 422 -86 211 -28 727 -26 945 5 168 24
305 53 392 83 52 18 52 18 86 -6 31 -20 39 -22 81 -12 53 12 59 31 21 67 -25
23 -25 24 -6 44 39 44 41 58 41 344 0 273 0 280 -22 312 -61 89 -294 165 -633
205 -122 15 -590 28 -680 19z m622 -119 c244 -24 492 -85 571 -141 30 -21 19
-34 -56 -67 -218 -98 -690 -153 -1105 -129 -229 13 -418 39 -557 77 -99 26
-225 83 -225 100 0 18 133 76 231 101 295 74 743 98 1141 59z"/>
<path d="M2240 1704 c-135 -36 -243 -137 -293 -272 -17 -46 -22 -89 -26 -231
l-6 -174 -40 -14 c-21 -7 -43 -19 -47 -26 -4 -6 -8 -155 -8 -329 l0 -318 25
-16 c33 -21 159 -60 265 -81 118 -24 383 -23 504 1 139 27 248 64 274 92 22
25 22 28 22 319 0 161 -4 305 -9 318 -6 16 -25 31 -55 42 l-46 18 0 156 c0
217 -24 293 -121 396 -109 115 -280 162 -439 119z m237 -172 c61 -32 96 -65
128 -124 29 -50 30 -60 33 -194 l4 -141 -74 13 c-94 17 -322 17 -415 0 l-73
-12 0 116 c0 154 15 203 83 276 86 92 211 118 314 66z m-71 -658 c38 -18 64
-58 64 -99 0 -33 -24 -81 -45 -88 -12 -5 -15 -27 -15 -121 0 -112 -1 -116 -25
-132 -23 -15 -27 -15 -50 0 -24 16 -25 20 -25 127 0 110 0 112 -31 147 -27 30
-30 41 -26 74 6 45 29 75 72 94 39 17 41 17 81 -2z"/>
<path d="M2255 1451 c-68 -42 -94 -98 -95 -208 l0 -73 43 0 c34 0 49 6 68 26
22 24 24 34 27 150 2 68 0 124 -5 124 -4 0 -21 -8 -38 -19z"/>
</g>
</svg>
