<svg width="1399" height="1225" viewBox="0 0 1399 1225" fill="none" xmlns="http://www.w3.org/2000/svg">
<rect width="1399" height="1225" fill="url(#paint0_linear)"/>
<path d="M433.187 882.977L545.421 766.288L439.789 614.371L433.187 882.977Z" fill="#C1B8DD"/>
<path d="M822.705 143.211L536.618 427.229L994.357 753.079L822.705 143.211Z" fill="#C1B8DD"/>
<path d="M287.436 921.266C287.893 921.272 288.343 921.369 288.762 921.551C289.181 921.733 289.559 921.996 289.875 922.327C290.19 922.657 290.437 923.046 290.6 923.473C290.763 923.9 290.84 924.354 290.825 924.811V947.709C290.845 948.142 290.768 948.574 290.601 948.973C290.433 949.373 290.179 949.731 289.857 950.02C289.57 950.297 289.207 950.48 288.814 950.547C288.422 950.614 288.018 950.561 287.656 950.395C285.866 950.072 284.003 949.83 282.067 949.668C280.13 949.507 278.179 949.426 276.213 949.426C268.522 949.342 260.897 950.84 253.81 953.829C239.906 959.734 228.853 970.832 223.001 984.763C218.509 995.372 217.291 1007.08 219.503 1018.39C221.715 1029.7 227.255 1040.08 235.412 1048.22C240.729 1053.44 246.957 1057.65 253.788 1060.63C260.847 1063.73 268.481 1065.31 276.191 1065.26C280.036 1065.23 283.869 1064.83 287.634 1064.05C289.747 1063.72 290.803 1064.62 290.803 1066.73V1089.63C290.773 1090.53 290.431 1091.4 289.835 1092.07C289.237 1092.85 288.363 1093.37 287.392 1093.53L281.912 1094.01C280.049 1094.17 278.142 1094.25 276.191 1094.25C264.596 1094.42 253.09 1092.2 242.388 1087.74C232.099 1083.37 222.757 1077.04 214.88 1069.11C207.023 1061.14 200.744 1051.76 196.372 1041.46C191.872 1030.73 189.554 1019.22 189.554 1007.59C189.554 995.966 191.872 984.454 196.372 973.732C200.746 963.431 207.025 954.049 214.88 946.079C222.758 938.147 232.1 931.821 242.388 927.453C253.082 922.875 264.604 920.552 276.235 920.628C279.978 920.598 283.72 920.811 287.436 921.266V921.266Z" fill="white"/>
<path d="M383.847 920.515C395.478 920.44 406.999 922.764 417.693 927.341C438.507 936.175 455.077 952.753 463.907 973.576C468.408 984.298 470.726 995.809 470.726 1007.44C470.726 1019.07 468.408 1030.58 463.907 1041.3C455.079 1062.12 438.508 1078.7 417.693 1087.54C406.977 1092.04 395.47 1094.36 383.847 1094.36C372.224 1094.36 360.717 1092.04 350.001 1087.54C329.185 1078.7 312.615 1062.12 303.787 1041.3C299.286 1030.58 296.968 1019.07 296.968 1007.44C296.968 995.809 299.286 984.298 303.787 973.576C312.615 952.751 329.185 936.173 350.001 927.341C360.694 922.763 372.216 920.44 383.847 920.515ZM383.847 949.512C376.264 949.488 368.752 950.973 361.748 953.879C354.743 956.786 348.387 961.057 343.046 966.443C337.802 971.796 333.594 978.073 330.635 984.959C327.587 992.08 326.015 999.746 326.015 1007.49C326.015 1015.24 327.587 1022.91 330.635 1030.03C336.54 1043.9 347.581 1054.94 361.444 1060.85C368.562 1063.9 376.225 1065.47 383.968 1065.47C391.711 1065.47 399.374 1063.9 406.492 1060.85C420.356 1054.94 431.398 1043.9 437.301 1030.03C440.349 1022.91 441.921 1015.24 441.921 1007.49C441.921 999.746 440.349 992.08 437.301 984.959C434.339 978.075 430.131 971.797 424.889 966.443C419.536 961.043 413.161 956.765 406.137 953.858C399.113 950.951 391.58 949.474 383.979 949.512H383.847Z" fill="white"/>
<path d="M494.893 920.516H549.425C557.15 920.442 564.81 921.94 571.938 924.92C585.902 930.773 597.006 941.883 602.857 955.853C607.387 966.486 608.624 978.234 606.407 989.578C604.191 1000.92 598.623 1011.34 590.424 1019.48C585.073 1024.73 578.798 1028.94 571.916 1031.9C564.815 1034.99 557.147 1036.57 549.403 1036.52H520.42V1091.04C520.398 1091.9 520.053 1092.73 519.452 1093.35C519.189 1093.68 518.856 1093.96 518.475 1094.15C518.095 1094.34 517.677 1094.44 517.251 1094.45H494.893C494.429 1094.46 493.97 1094.36 493.547 1094.17C493.125 1093.98 492.75 1093.7 492.45 1093.35C491.848 1092.73 491.502 1091.9 491.482 1091.04V923.709C491.467 921.595 492.604 920.531 494.893 920.516ZM549.425 949.513H520.42V1007.48H549.403C553.294 1007.52 557.148 1006.73 560.715 1005.17C564.119 1003.69 567.216 1001.58 569.847 998.962C572.484 996.302 574.59 993.164 576.053 989.715C577.576 986.156 578.361 982.325 578.361 978.454C578.361 974.582 577.576 970.751 576.053 967.192C573.071 960.277 567.56 954.764 560.649 951.78C557.099 950.248 553.269 949.476 549.403 949.513H549.425Z" fill="white"/>
<path d="M708.645 923.687C709.016 922.82 709.656 922.094 710.471 921.618C711.222 921.093 712.108 920.795 713.024 920.759H737.848C739.96 920.759 740.613 921.735 739.806 923.687L695.001 1030.87V1091.28C695.063 1091.71 695.025 1092.15 694.888 1092.56C694.751 1092.98 694.519 1093.35 694.211 1093.66C693.903 1093.97 693.528 1094.2 693.115 1094.34C692.702 1094.47 692.262 1094.51 691.832 1094.45H669.429C667.155 1094.45 666.018 1093.39 666.018 1091.28V1030.87L621.212 923.687C620.405 921.735 621.051 920.759 623.149 920.759H647.994C648.977 920.685 649.958 920.929 650.79 921.457C651.623 921.984 652.263 922.767 652.616 923.687L680.608 995.066L708.645 923.687Z" fill="white"/>
<path d="M801.886 920.518C807.702 920.48 813.463 921.642 818.81 923.93C823.971 926.125 828.68 929.261 832.696 933.177C836.691 937.106 839.876 941.781 842.071 946.938C844.358 952.287 845.519 958.051 845.482 963.869C845.563 970.779 843.89 977.597 840.618 983.684C845.616 985.917 850.252 988.885 854.372 992.491C858.472 996.102 862.076 1000.24 865.09 1004.8C868.109 1009.39 870.444 1014.4 872.022 1019.66C873.659 1025.11 874.482 1030.77 874.464 1036.46C874.506 1044.21 872.932 1051.88 869.843 1058.98C863.939 1072.85 852.898 1083.9 839.034 1089.81C831.933 1092.9 824.265 1094.47 816.521 1094.43H761.702C761.277 1094.42 760.859 1094.32 760.479 1094.13C760.098 1093.93 759.764 1093.66 759.501 1093.33C758.899 1092.71 758.553 1091.88 758.533 1091.02V923.688C758.47 923.257 758.509 922.817 758.646 922.404C758.783 921.991 759.015 921.615 759.323 921.307C759.63 920.999 760.006 920.768 760.419 920.63C760.832 920.493 761.271 920.455 761.702 920.518H801.886ZM787.582 978.488H801.952C803.874 978.497 805.778 978.125 807.555 977.393C809.331 976.661 810.946 975.585 812.304 974.226C813.663 972.866 814.739 971.251 815.47 969.474C816.202 967.696 816.574 965.791 816.565 963.869C816.605 961.959 816.246 960.062 815.511 958.299C814.776 956.536 813.681 954.946 812.296 953.631C810.935 952.285 809.319 951.225 807.543 950.514C805.766 949.804 803.865 949.456 801.952 949.492H787.582V978.488ZM816.565 1065.45C820.418 1065.47 824.232 1064.68 827.766 1063.14C834.717 1060.22 840.247 1054.69 843.171 1047.73C844.693 1044.17 845.478 1040.34 845.478 1036.47C845.478 1032.6 844.693 1028.77 843.171 1025.21C841.686 1021.8 839.582 1018.71 836.965 1016.07C834.305 1013.43 831.168 1011.33 827.722 1009.86C824.187 1008.33 820.374 1007.54 816.521 1007.55H787.582V1065.52L816.565 1065.45Z" fill="white"/>
<path d="M900.982 1094.34C898.708 1094.34 897.571 1093.28 897.571 1091.17V923.84C897.571 921.727 898.708 920.67 900.982 920.67H923.143C925.417 920.67 926.554 921.727 926.554 923.84V1091.17C926.554 1093.28 925.417 1094.34 923.143 1094.34H900.982Z" fill="white"/>
<path d="M956.725 920.514H1011.26C1018.86 920.476 1026.39 921.954 1033.42 924.861C1040.44 927.768 1046.82 932.046 1052.17 937.445C1057.41 942.799 1061.62 949.077 1064.58 955.962C1068.17 964.333 1069.71 973.44 1069.08 982.527C1068.44 991.614 1065.65 1000.42 1060.93 1008.21C1055.66 1016.89 1048.29 1024.09 1039.49 1029.15L1067.73 1091.26C1067.89 1091.6 1067.97 1091.98 1067.97 1092.36C1067.97 1092.74 1067.89 1093.11 1067.73 1093.46C1067.54 1093.79 1067.25 1094.06 1066.9 1094.23C1066.56 1094.41 1066.17 1094.47 1065.79 1094.43H1040.66C1039.61 1094.41 1038.59 1094.07 1037.73 1093.46C1036.88 1092.94 1036.2 1092.17 1035.8 1091.26L1010.95 1036.46H982.297V1091.04C982.277 1091.9 981.931 1092.73 981.329 1093.35C981.029 1093.7 980.654 1093.98 980.231 1094.17C979.809 1094.36 979.349 1094.46 978.886 1094.45H956.725C956.262 1094.46 955.803 1094.36 955.38 1094.17C954.958 1093.98 954.583 1093.7 954.283 1093.35C953.68 1092.73 953.335 1091.9 953.314 1091.04V923.707C953.314 921.593 954.451 920.529 956.725 920.514ZM1011.26 949.511H982.297V1007.48H1011.28C1015.17 1007.51 1019.03 1006.73 1022.59 1005.17C1029.52 1002.22 1035.04 996.693 1038 989.757C1039.52 986.198 1040.3 982.367 1040.3 978.496C1040.3 974.625 1039.52 970.793 1038 967.234C1035.01 960.319 1029.5 954.806 1022.59 951.822C1019.02 950.266 1015.17 949.479 1011.28 949.511H1011.26Z" fill="white"/>
<path d="M1122.52 920.517C1134.15 920.441 1145.68 922.765 1156.37 927.342C1177.18 936.174 1193.76 952.752 1202.58 973.577C1207.08 984.299 1209.4 995.811 1209.4 1007.44C1209.4 1019.07 1207.08 1030.58 1202.58 1041.3C1193.76 1062.13 1177.18 1078.7 1156.37 1087.54C1145.67 1092.11 1134.15 1094.42 1122.52 1094.34H1096.97C1096.51 1094.35 1096.05 1094.26 1095.63 1094.06C1095.21 1093.87 1094.83 1093.59 1094.53 1093.24C1093.93 1092.62 1093.58 1091.79 1093.56 1090.93V923.929C1093.5 923.466 1093.54 922.993 1093.69 922.549C1093.83 922.105 1094.08 921.701 1094.42 921.37C1094.75 921.039 1095.15 920.789 1095.59 920.641C1096.04 920.493 1096.51 920.45 1096.97 920.517H1122.52ZM1122.52 1065.45C1130.27 1065.5 1137.94 1063.92 1145.04 1060.83C1151.92 1057.87 1158.19 1053.66 1163.54 1048.41C1171.66 1040.25 1177.17 1029.87 1179.38 1018.57C1181.59 1007.28 1180.4 995.578 1175.96 984.96C1170.1 970.99 1159 959.88 1145.04 954.026C1137.91 951.047 1130.25 949.549 1122.52 949.623V1065.45Z" fill="white"/>
<path d="M344.127 749.424L477.752 709.045L681.379 734.496L344.127 749.424Z" fill="black"/>
<path d="M475.638 709.044L615.622 641.166L681.378 734.496L475.638 709.044Z" fill="#5B5B5B"/>
<path d="M615.623 641.231L812.891 607.281L681.379 734.583L615.623 641.231Z" fill="#7A7A7A"/>
<path d="M518.045 573.354L615.623 641.232L573.37 661.729L518.045 573.354Z" fill="black"/>
<path d="M615.623 641.232L812.891 607.282L679.266 594.557L615.623 641.232Z" fill="#3A3A3A"/>
<path d="M675.019 547.902L679.266 594.578L812.89 607.304L675.019 547.902Z" fill="#2B2B2B"/>
<path d="M789.541 554.265L675.106 547.902L812.978 607.348L789.541 554.265Z" fill="#4F4F4F"/>
<path d="M698.345 507.59L789.541 554.266L675.106 547.903L698.345 507.59Z" fill="#3A3A3A"/>
<path d="M812.891 501.227L698.456 507.589L789.652 554.265L812.891 501.227Z" fill="#2F2F2F"/>
<path d="M689.851 348.496L812.868 501.227L698.433 507.59L689.851 348.496Z" fill="#7A7A7A"/>
<path d="M751.382 340.02L813.001 501.249L689.983 348.518L751.382 340.02Z" fill="#585858"/>
<path d="M549.911 130L751.404 340.019L689.786 348.496L549.911 130Z" fill="black"/>
<path d="M789.541 554.265L848.959 518.201L899.817 537.312L812.846 607.326L789.541 554.265Z" fill="black"/>
<path d="M812.891 607.304L853.185 630.642L899.817 537.312L812.891 607.304Z" fill="#949494"/>
<path d="M853.185 630.641L681.379 734.582L812.891 607.303L853.185 630.641Z" fill="#595959"/>
<path d="M681.379 734.584L745 730.335L853.185 630.643L681.379 734.584Z" fill="#2B2B2B"/>
<path d="M422.603 507.59L679.266 594.557L615.645 641.232L422.603 507.59Z" fill="#616161"/>
<path d="M675.018 547.902H540.228L679.266 594.556L675.018 547.902Z" fill="#3A3A3A"/>
<path d="M339.878 393.037L453.917 518.203L540.601 547.882L339.878 393.037Z" fill="black"/>
<path d="M301.697 463.049L454.424 518.201L518.045 573.353L301.697 463.049Z" fill="black"/>
<defs>
<linearGradient id="paint0_linear" x1="-1.12503e-06" y1="612.117" x2="1399" y2="612.117" gradientUnits="userSpaceOnUse">
</linearGradient>
</defs>
</svg>
