<svg version="1" xmlns="http://www.w3.org/2000/svg" width="400" height="400" viewBox="0 0 300.000000 300.000000"><g fill="#5E4FB3"><path d="M96.5 22.6c-2.2.2-9.6.9-16.4 1.5-28.9 2.5-52.8 8.6-64.3 16.5C9.3 45.2 9 46.5 9 77c0 28.2.3 30.5 4.5 34 1.4 1.2 1.3 1.6-1.2 4.2l-2.8 2.9v59.8l2.8 2.9c2.5 2.6 2.6 3 1.2 4.2-4.2 3.5-4.5 5.8-4.5 34.2 0 32.1-.1 31.9 9.8 37.8 11.2 6.8 33.4 12.3 61.2 15.2 16.3 1.6 62.9 1.6 79 0 16.1-1.7 17.3-2 16.3-4.1-.4-.9-.9-14.8-1.1-31l-.3-29.3-5.2.6c-15.9 1.9-27.6 2.6-48.7 2.6-32 0-55.6-2.3-75.6-7.6-9.7-2.5-21.6-7.3-22.8-9.2-.4-.6.5-1.9 1.9-2.8 2.4-1.6 3-1.5 13.3 1.4 19 5.5 34.4 7.7 62.8 9.2 20.7 1.1 50.4.1 67.3-2.1 7.6-1 8.8-1.5 11.6-4.5 1.8-1.9 3.7-3.4 4.4-3.4.7 0 1.1-3.7 1.1-11.8 0-20.6 3.8-31.7 14.6-43.2 3.5-3.7 6.4-6.9 6.4-7.2 0-.2-4.9.8-11 2.4-41.9 10.5-107.5 10.4-149.7-.2-10.5-2.7-23.3-8.2-23.3-10.1 0-.5 1.2-1.5 2.7-2.2 2.4-1.3 3.3-1.2 8.1.4 7.6 2.6 26.2 6.4 42.2 8.6 21.1 2.8 72.7 2.6 94.5-.5 16.8-2.4 30.5-5.3 39.2-8.3 5.2-1.8 5.2-1.8 8.6.6 3.1 2 3.9 2.2 8.1 1.2 5.3-1.2 5.9-3.1 2.1-6.7-2.5-2.3-2.5-2.4-.6-4.4 3.9-4.4 4.1-5.8 4.1-34.4 0-27.3 0-28-2.2-31.2-6.1-8.9-29.4-16.5-63.3-20.5-12.2-1.5-59-2.8-68-1.9zm62.2 11.9c24.4 2.4 49.2 8.5 57.1 14.1 3 2.1 1.9 3.4-5.6 6.7-21.8 9.8-69 15.3-110.5 12.9-22.9-1.3-41.8-3.9-55.7-7.7-9.9-2.6-22.5-8.3-22.5-10 0-1.8 13.3-7.6 23.1-10.1 29.5-7.4 74.3-9.8 114.1-5.9z"/><path d="M224 129.6c-13.5 3.6-24.3 13.7-29.3 27.2-1.7 4.6-2.2 8.9-2.6 23.1l-.6 17.4-4 1.4c-2.1.7-4.3 1.9-4.7 2.6-.4.6-.8 15.5-.8 32.9V266l2.5 1.6c3.3 2.1 15.9 6 26.5 8.1 11.8 2.4 38.3 2.3 50.4-.1 13.9-2.7 24.8-6.4 27.4-9.2 2.2-2.5 2.2-2.8 2.2-31.9 0-16.1-.4-30.5-.9-31.8-.6-1.6-2.5-3.1-5.5-4.2l-4.6-1.8v-15.6c0-21.7-2.4-29.3-12.1-39.6-10.9-11.5-28-16.2-43.9-11.9zm23.7 17.2c6.1 3.2 9.6 6.5 12.8 12.4 2.9 5 3 6 3.3 19.4l.4 14.1-7.4-1.3c-9.4-1.7-32.2-1.7-41.5 0l-7.3 1.2V181c0-15.4 1.5-20.3 8.3-27.6 8.6-9.2 21.1-11.8 31.4-6.6zm-7.1 65.8c3.8 1.8 6.4 5.8 6.4 9.9 0 3.3-2.4 8.1-4.5 8.8-1.2.5-1.5 2.7-1.5 12.1 0 11.2-.1 11.6-2.5 13.2-2.3 1.5-2.7 1.5-5 0-2.4-1.6-2.5-2-2.5-12.7 0-11 0-11.2-3.1-14.7-2.7-3-3-4.1-2.6-7.4.6-4.5 2.9-7.5 7.2-9.4 3.9-1.7 4.1-1.7 8.1.2z"/><path d="M225.5 154.9c-6.8 4.2-9.4 9.8-9.5 20.8v7.3h4.3c3.4 0 4.9-.6 6.8-2.6 2.2-2.4 2.4-3.4 2.7-15 .2-6.8 0-12.4-.5-12.4-.4 0-2.1.8-3.8 1.9z"/></g></svg>