<svg width="299" height="198" viewBox="0 0 299 198" xmlns="http://www.w3.org/2000/svg"><path d="M210.46 190.405c-4.763-4.098-4.48-8.827 2.705-45.217 1.086-5.5 2.844-13.73 3.906-18.29 2.38-10.21 2.383-10.053-.142-6.845-2.515 3.198-9.247 7.192-13.677 8.116-7.705 1.606-14.989-3.169-17.816-11.68-4.163-12.535 2.367-54.585 11.538-74.301 1.536-3.3 3.858-11.175 5.161-17.5l2.37-11.5 4.862-3.25c3.805-2.544 5.908-3.25 9.677-3.25 8.806 0 9.526 2.81 5.345 20.854-1.953 8.43-3.326 12.164-5.33 14.5-1.66 1.934-3.193 5.457-3.979 9.146-.703 3.3-4.158 14.487-7.678 24.86-6.757 19.912-7.302 22.646-4.91 24.63 3.03 2.516 8.029.341 13.271-5.772 10.766-12.555 12.98-16.7 17.221-32.252 3.698-13.56 13.136-40.341 16.694-47.372 2.469-4.878 4.415-6.594 7.48-6.594 2.707 0 6.845 2.968 6.845 4.91 0 .5-2.01 7.34-4.466 15.2-2.456 7.86-4.336 14.42-4.178 14.58.158.158 2.443-2.32 5.076-5.508 6.521-7.89 10.828-10.706 16.197-10.587 11.44.254 18.232 13.343 16.813 32.397-.924 12.416-4.236 23.211-10.702 34.886-13.692 24.723-22.527 33.528-33.707 33.591-3.79.022-6.832-.651-9.657-2.137l-4.124-2.168-2.598 13.168c-2.799 14.19-2.944 15.039-4.697 27.339-1.033 7.25-.97 8.497.548 11.069 1.66 2.81 1.633 3.056-.93 8.114-1.454 2.868-3.528 6.1-4.61 7.18-2.792 2.793-9.077 2.634-12.507-.317zm49.45-90.17c2.312-1.195 3.344-3.093 5.846-10.75 4.939-15.12 5.302-24.627 1.027-26.915-1.715-.918-2.703-.322-7.135 4.301-6.688 6.976-15.645 22.096-15.645 26.41 0 6.638 8.95 10.551 15.908 6.954zM30 184.309c-7.446-1.642-9.336-2.808-17.75-10.945C6.287 167.595 5 165.795 5 163.22c0-6.375 4.332-7.236 10.747-2.136 4.86 3.864 10.715 5.141 18.596 4.057 10.309-1.417 18.772-6.016 20.798-11.3.963-2.514 5.073-16.89 6.833-23.903.964-3.841.82-3.896-2.95-1.109-1.664 1.23-4.989 2.342-7.819 2.614-7.85.754-11.034-1.375-18.068-12.08-7.46-11.353-8.136-13.141-8.136-21.53 0-20.624 21.269-58.382 36.817-65.36 5.672-2.546 10.4-1.73 17.907 3.092 5.038 3.237 6.387 3.66 10.568 3.313 5.359-.445 10.3 1.181 11.735 3.86 1.418 2.65 4.973 18.55 4.972 22.239 0 1.766-1.396 6.136-3.102 9.711-8.327 17.453-14.844 38.448-21.836 70.345-3.65 16.651-6.376 23.891-10.87 28.863-8.426 9.328-25.983 13.765-41.192 10.411zm31.806-96.484c4.303-6.4 9.103-13.885 10.666-16.635 2.722-4.789 2.742-4.916.473-3-5.052 4.264-14.282 17.276-19.308 27.217-5.42 10.72-2.013 7.558 8.168-7.582zm54.605 41.974c-5.133-3.13-7.157-6.713-9.43-16.69-2.8-12.292-3.93-10.435 22.677-37.291l16.22-16.372-5.74.649c-5.29.599-5.928.448-8.154-1.921-1.882-2.004-2.574-4.16-3.138-9.777-1.264-12.605-1.061-16.413.904-16.965 34.723-9.763 51.016-11.903 57.955-7.615 1.892 1.17 3.845 3.19 4.34 4.49 1.097 2.888-1.193 22.886-3.029 26.437-1.198 2.316-11.982 13.245-31.28 31.697l-8.628 8.25h5.399c6.421 0 10.348 1.57 11.06 4.421.285 1.143.387 6.322.226 11.508l-.293 9.43-13 3.89c-7.15 2.14-15.915 4.76-19.478 5.82-8.145 2.426-12.678 2.437-16.61.04z" fill="#a3a3d5"/><path d="M212.4 191.255c-1.705-.743-3.393-2.112-3.75-3.043-1.974-5.144.035-19.607 7.764-55.885l3.378-15.856-4.146 4.059c-4.961 4.856-10.06 7.154-15.864 7.149-9.7-.008-15.047-7.64-15.405-21.986-.416-16.67 7.463-54.064 13.59-64.51.969-1.65 2.783-7.95 4.033-14 1.249-6.05 2.706-11.956 3.238-13.124 1.314-2.886 7.586-6.253 13.036-7 3.738-.513 4.84-.262 6.606 1.504 2.685 2.685 2.665 3.124-.782 17.944-2.177 9.357-3.48 12.97-5.413 15-1.66 1.745-3.104 5.112-4.15 9.676-.882 3.85-4.52 15.617-8.083 26.149-5.247 15.505-6.298 19.627-5.524 21.664 2.475 6.51 9.604 3.76 18.078-6.974 8.854-11.214 10.348-14.241 14.49-29.34 6.358-23.187 16.77-49.484 20.97-52.971 1.379-1.144 2.162-1.1 5.082.293 2.044.975 3.452 2.38 3.452 3.442 0 .988-2.014 8.507-4.475 16.708-2.461 8.202-4.2 15.163-3.863 15.47.336.307.81.006 1.05-.668 1.076-3.007 10.01-12.612 13.796-14.83 7.926-4.645 14.695-2.077 19.993 7.585 2.937 5.357 2.997 5.755 2.885 18.972-.151 17.867-2.481 24.864-15.79 47.41-10.42 17.653-18.682 24.186-29.59 23.397-3.707-.268-6.702-1.166-8.749-2.624-3.672-2.614-3.16-3.59-6.203 11.817-5.075 25.695-6.106 36.343-3.865 39.931 2.404 3.849-5.506 16.11-10.34 16.03-1.292-.021-3.744-.646-5.449-1.388zm49.11-91.581c3.112-2.923 7.499-17.06 8.209-26.453.484-6.396.295-7.866-1.228-9.55-2.548-2.815-3.973-2.506-8.273 1.794C254.035 71.649 243 89.525 243 93.362c0 2.197 3.9 7.328 6.374 8.387 3.289 1.407 9.573.332 12.136-2.075zM26.32 182.826c-7.41-2.56-21.316-15.398-21.316-19.677 0-1.381 3.764-5.466 5.036-5.466.527 0 2.806 1.669 5.064 3.709 3.659 3.305 4.8 3.753 10.496 4.116 9.989.636 16.562-.57 22.546-4.134 6.414-3.82 7.654-6.091 11.845-21.692 1.699-6.325 3.332-12.303 3.63-13.285.412-1.362-.552-1.015-4.07 1.464-3.834 2.703-5.524 3.25-10.053 3.25-7.304 0-9.594-1.86-17.198-13.965-8.043-12.805-8.636-16.533-4.907-30.823 5.62-21.536 21.663-46.666 34.027-53.299 4.638-2.488 11.24-1.34 17.968 3.125 5.144 3.415 6.161 3.73 10.223 3.174 5.132-.703 10.663 1.12 12.207 4.025.536 1.01 2.012 6.442 3.279 12.072l2.303 10.237-3.328 7.263c-9.008 19.659-17.287 46.326-22.59 72.763-3.399 16.944-6.225 23.983-11.757 29.275-9.071 8.68-30.05 12.483-43.406 7.868zm32.512-89.643c2.525-3.85 4.841-7.225 5.147-7.5.458-.413 10.27-16.49 11.809-19.35.251-.468-.393-.395-1.432.161-2.518 1.348-9.885 10.163-14.746 17.645-3.836 5.904-10.606 18.792-10.606 20.19 0 1.654 5.591-4.689 9.827-11.147zm58.447 36.407c-5.274-2.61-7.576-6.376-9.65-15.78-2.193-9.95-2.113-10.715 1.62-15.482 5.155-6.582 22.737-24.872 27.509-28.615.41-.323 2.924-2.879 5.584-5.68l4.837-5.094-6.98.5c-9.714.694-9.753.626-11.702-20.41l-.57-6.156 6.289-2.009c3.459-1.105 7.414-2.235 8.789-2.512s6.1-1.433 10.5-2.568 12.511-2.592 18.025-3.236c9.078-1.061 10.384-1.002 13.825.631 6.57 3.118 7.15 4.91 5.753 17.786-.81 7.473-1.835 12.167-3.102 14.217-1.725 2.792-6.44 7.564-32 32.386l-8.5 8.255 4.137-.639c5.192-.802 12.009.97 13.346 3.467 1.971 3.684.87 20.885-1.378 21.516-.608.17-4.93 1.33-9.605 2.574s-9.748 2.883-11.272 3.64c-2.911 1.445-17.153 5.26-19.728 5.286-.825.008-3.402-.927-5.726-2.077z" fill="#5a59b9"/><path d="M214.5 191.965c-1.1-.266-3.012-1.418-4.25-2.559-3.935-3.628-2.755-14.92 5.666-54.226 2.121-9.9 3.737-18.133 3.592-18.295-.146-.162-2.007 1.424-4.137 3.524-10.59 10.447-22.499 9.511-28.37-2.23-2.245-4.488-2.488-6.122-2.375-15.999.194-17.089 7.617-50.888 13.352-60.799 1.018-1.76 2.838-8.15 4.043-14.2 2.607-13.084 2.954-13.829 7.891-16.946 4.932-3.113 10.182-4.104 13.232-2.497 4.523 2.384 4.536 3.273.319 20.912-1.977 8.265-3.2 11.465-4.895 12.798-1.428 1.123-2.71 3.794-3.483 7.255-.672 3.013-4.433 15.205-8.356 27.094-6.997 21.201-7.1 21.668-5.409 24.25 1.07 1.632 2.637 2.633 4.122 2.633 2.596 0 8.54-2.995 8.551-4.309.004-.445.457-.53 1.007-.19s1 .078 1-.581c0-.66.787-1.845 1.75-2.634s1.082-1.084.266-.657c-.816.428.247-1.334 2.362-3.915s4.24-4.45 4.722-4.152c.482.298.61-.153.284-1.001-.349-.91.067-1.797 1.012-2.16.882-.338 1.604-1.467 1.604-2.508s.375-1.893.833-1.893c.458 0 .835-.562.837-1.25.01-4.339 11.233-39.928 12.369-39.226.426.264.556-.354.29-1.373-.267-1.019.15-2.486.923-3.26.775-.775 1.198-2.039.942-2.809-.332-.995.048-1.203 1.31-.718 1.535.589 1.597.463.452-.917-.784-.944-.944-1.875-.392-2.273.515-.37 1.09-1.574 1.277-2.674.188-1.1.75-2.15 1.25-2.333.5-.183.909-.866.909-1.518 0-1.905 5.023-8.752 5.984-8.158.483.298 1.203.015 1.601-.629.452-.731.29-.903-.43-.457-.636.392-1.155.237-1.155-.346 0-1.87 2.705-1.13 4.357 1.191 1.402 1.97 1.522 2.001.963.25-.352-1.1-.289-1.684.139-1.298.987.89 1.525 6.798.618 6.798-.372 0-1.323-.562-2.112-1.25s-.433-.1.793 1.307c1.709 1.962 1.954 2.831 1.05 3.735-1.04 1.04-1.326 2.026-1.984 6.863-.087.635-.777.917-1.534.626-1.116-.428-1.054-.885.327-2.41.937-1.036 1.407-2.18 1.043-2.543-.363-.364-.66-.11-.66.565s-.43.96-.957.634-.703-1.249-.395-2.053c.309-.804.887-1.26 1.286-1.014 1.15.71.554-3.372-.672-4.597-1.342-1.343-.48-4.115.997-3.202.656.405.747.159.243-.658-.628-1.016-1.122-.884-2.226.596-.78 1.046-1.87 1.778-2.421 1.626-.552-.15-.769.106-.481.571.742 1.201-3.22 7.418-4.302 6.749-.493-.305-.77.235-.613 1.2s-.164 2.318-.71 3.005-.827 1.285-.622 1.327c3.342.686 3.806.626 3.156-.414-1.3-2.08-1.119-3.501.653-5.105 1.586-1.436 1.869-1.42 3.215.184 1.532 1.826 1.724 3.055.74 4.758-.317.55-.242 2.125.166 3.5l.743 2.5.216-2.5c.145-1.676.363-1.943.662-.809.245.93-.31 2.842-1.231 4.25-1.014 1.546-1.236 2.56-.562 2.56.613 0 1.115.497 1.115 1.106s-.631.865-1.402.57c-1.51-.58-1.584.954-.156 3.243.667 1.07.478 1.264-.766.786-.909-.348-1.605-.312-1.546.08.298 2-.22 4.277-.88 3.869-.413-.255-.829.843-.924 2.44-.392 6.551-.607 7.85-1.24 7.46-.364-.226-.757.737-.873 2.139-.168 2.029.063 2.322 1.13 1.436.737-.612 1.558-.895 1.824-.629s.334-.975.15-2.758c-.27-2.641-.159-2.872.605-1.243.893 1.905.94 1.89 1.007-.309.04-1.27.46-2.068.937-1.773.477.294 1.63-.31 2.565-1.342 1.114-1.23 1.332-2.104.634-2.535-1.024-.633-1.462.041-1.159 1.784.079.453-.387.496-1.036.095-.81-.5-.914-.288-.333.676.721 1.196.596 1.2-.845.032-2.07-1.68-2.233-3.55-.243-2.786.966.371 1.264.076.895-.887-.305-.794-.952-1.197-1.438-.897-.486.3-.58-.242-.211-1.205.395-1.03.833-1.27 1.062-.581.293.88.717.868 1.711-.051.727-.671 1.074-1.628.772-2.125-.302-.498-.094-.623.463-.279s1.858-.944 2.89-2.862 2.425-3.278 3.092-3.022c.788.302.99-.13.577-1.234-.554-1.478-.42-1.522 1.04-.335.921.75 1.386 1.831 1.032 2.404-.371.601-.16.743.5.335.817-.505.647-1.466-.595-3.366-.957-1.463-1.237-2.35-.623-1.972.614.379 1.888-.165 2.832-1.207 1.788-1.976 5.029-1.943 8.827.09 1.515.81 1.788.764 1.19-.202-.477-.774-.367-1.003.287-.599.667.412.867-.088.538-1.345-.304-1.164-.031-2.002.652-2.002.647 0 .923.41.614.91-.31.5-.283 1.639.059 2.53.573 1.492.714 1.492 1.806 0 1.088-1.489 1.298-1.483 2.588.07 1.623 1.956 2.26 4.774.887 3.926-.511-.316-.701-.942-.423-1.391.277-.45-.25-1.432-1.171-2.181-1.448-1.178-1.595-1.146-1.078.237.496 1.325-.076 1.55-3.313 1.305-2.39-.181-3.911.138-3.911.82 0 .614-.652 1.838-1.45 2.718-.925 1.023-1.134 2.112-.576 3.015.751 1.215 1.12 1.212 2.637-.023 1.592-1.296 1.691-1.244 1.023.534-.407 1.083-.419 1.648-.027 1.256 1.618-1.618 3.477 3.555 3.592 9.999.067 3.726.498 7.026.959 7.332 1.328.886 1.78 7.019.458 6.228-.614-.368-.503.087.245 1.01.798.983 1.11 2.687.752 4.11-.377 1.502-.133 2.634.639 2.966.686.295.056.37-1.401.167-1.832-.255-2.587.059-2.446 1.018.256 1.744 1.418 2.93 2.928 2.99.642.025 1.007.7.812 1.5-.196.8-.445 2.004-.555 2.675-.33 2.024-1.255 2.404-1.287.53-.017-.963.47-2.426 1.083-3.25.964-1.3.882-1.319-.614-.147-1.68 1.317-1.897 3.554-.553 5.703.56.896.38 4.39-.268 5.193-.11.138-.257.663-.326 1.167s-.535 1.292-1.036 1.75c-.538.493-.577.26-.095-.571.56-.966.44-1.173-.388-.661-.928.573-.906 1.11.095 2.346.974 1.202.986 1.415.049.852-1.293-.776-1.616.541-1.316 5.367.12 1.93-.068 2.169-.824 1.048-.538-.799-.75-1.822-.47-2.275s-.082-.698-.804-.547c-.96.2-1.276-1.071-1.173-4.726.093-3.303-.123-4.321-.637-3-.427 1.1-.72 2.29-.652 2.645.07.355-.593 1.48-1.472 2.5-2.183 2.535-3.222 4.462-2.227 4.13.454-.15.937.176 1.075.726.137.55-.307 1-.987 1-1.886 0-2.053 3.014-.25 4.51.88.73 1.52.914 1.425.409-.096-.506-.09-1.82.014-2.92l.188-2 .95 2c.886 1.865.922 1.848.524-.249-.234-1.237-.019-2.5.48-2.809s.913.03.921.75c.011.95.28.898.985-.192.755-1.168.973-.892.985 1.25.008 1.513-.462 2.75-1.044 2.75s-.738.52-.346 1.155c.43.696.276.884-.39.472-1.15-.71-5.896 4.941-5.455 6.494.137.484-.227.88-.81.88s-.78.45-.44 1 .066 1-.608 1c-.674 0-.956.27-.626.599.918.918-4.845 6.145-9.255 8.395-5.192 2.648-11.49 2.558-17.049-.245-4.687-2.363-4.867-2.842-3.667-9.75 1.557-8.954 1.96-10.582 2.912-11.739 1.242-1.509 3.097-.595 2.15 1.058-.373.65-.31.848.14.44s1.348-.302 1.994.234c.808.67 1.176.528 1.176-.453 0-.786-.263-1.4-.583-1.366-1.878.203-2.17-.369-.956-1.866.755-.93.857-1.383.227-1.005-.63.377-1.389.05-1.687-.726-.298-.776.128-1.668.947-1.982.84-.323 1.223-.14.878.417-.336.544-.134.988.448.988s1.06.66 1.06 1.465c0 .806 1.012 1.956 2.25 2.555 2.16 1.047 2.172 1.029.308-.464-2.183-1.75-1.384-2.068 1.42-.567 2.998 1.604.974 6.334-2.388 5.583-.6-.134-.75-.054-.335.178.416.232.46.902.096 1.49-.39.632-.189.778.494.356.635-.393 1.154-.281 1.154.248 0 .528 1.35 1.431 3 2.007 2.116.737 3 .73 3-.025 0-.666.588-.582 1.556.221.857.71 1.478.878 1.382.373-.096-.506-.065-1.257.069-1.67.134-.412.3-1.18.368-1.707.069-.526 1.025-1.684 2.125-2.574s1.325-1.272.5-.85c-1.288.657-1.307.528-.137-.916.75-.924 1.666-1.494 2.036-1.265.37.228.722-.339.782-1.261.134-2.036.526-3.446 3.806-13.677 1.411-4.4 2.839-11.404 3.173-15.565 1.072-13.343-2.588-15.435-11.333-6.478-5.095 5.219-6.915 6.227-3.795 2.102.807-1.068 1.466-2.418 1.464-3-.002-.582-.929.459-2.06 2.314-1.13 1.855-1.823 3.98-1.538 4.723.285.742-.588 2.665-1.94 4.271-1.352 1.607-2.458 3.475-2.458 4.15 0 .913-.43.876-1.677-.144-1.5-1.228-1.564-1.169-.606.564.807 1.458.681 2.757-.508 5.25-.869 1.822-1.946 3.313-2.394 3.313-.448 0-.815.702-.815 1.56s-.449 1.28-.997.942c-.662-.41-.663.262-.003 1.998.66 1.737.66 2.408-.003 1.998-.548-.339-.997.112-.997 1.002 0 .969-.464 1.332-1.155.905-.718-.444-.883-.274-.435.45.395.64.416 2.118.045 3.286-.539 1.698-.865 1.846-1.63.741-.695-1.004-.795-.806-.368.727.757 2.716-.333 5.567-1.812 4.739-.826-.463-.82-.29.02.62.892.967.746 2.24-.624 5.437-.985 2.296-2.108 5.623-2.497 7.394-.456 2.077-1.121 2.97-1.875 2.518-.724-.434-.674-.09.13.902.872 1.078.954 1.815.25 2.251-.577.357-1.05 1.383-1.05 2.28 0 1.377.244 1.329 1.556-.309 1.5-1.873 1.518-1.864.495.253-.584 1.207-1.508 2.471-2.056 2.81s-.994 1.064-.994 1.614.52.68 1.154.287c.791-.49.878-.272.277.69-.483.773-.934 1.855-1.002 2.405l-.277 2.219c-.174 1.396-3.152.56-3.152-.885 0-.523.419-.693.93-.377.513.317 1.195.15 1.517-.371.322-.521.127-1.231-.434-1.577-.65-.403-.682-1.258-.088-2.37.76-1.42.505-1.739-1.389-1.739-1.632 0-2.18.46-1.846 1.55.313 1.027-.07.882-1.138-.43-1.59-1.956-1.606-1.953-1.274.224.185 1.212.617 2.485.96 2.828 1.036 1.036-.362 3.465-1.593 2.768-.63-.357.087.677 1.594 2.299 2.618 2.818 2.666 3.05 1.092 5.299-1.573 2.246-1.707 2.269-2.989.515-.738-1.01-1.342-1.383-1.342-.831s1.298 2.247 2.884 3.767l2.884 2.763-.255-2.995c-.201-2.366.075-2.868 1.315-2.392.947.363 1.116.754.427.983-.628.21-.893 1.033-.587 1.83.305.796.06 2.046-.548 2.777-.607.731-.82 1.611-.476 1.956s-.08 1.705-.944 3.023c-1.22 1.863-1.306 2.694-.385 3.733.986 1.113.893 1.116-.554.022-.957-.724-1.414-1.827-1.016-2.452s.787-1.474.864-1.887c.078-.412.253-.975.39-1.25.8-1.598.292-3.196-1.48-4.657-2.86-2.36-3.885-1.187-1.731 1.977 1.926 2.831 2.122 3.988.978 5.783-.386.606-.056 1.956.734 3 .79 1.043 1.444 2.347 1.453 2.897.009.55-.42.325-.953-.5s-1.011-1.275-1.062-1-.242 1.286-.426 2.246.076 2 .577 2.31c.5.309.91.01.91-.664s.238-.988.529-.697c.956.956-1.456 5.825-2.756 5.562-.7-.141-1.205.56-1.122 1.56.082.999-.101 1.565-.408 1.259-.307-.307-1.087-.12-1.734.417-.808.67-1.175.525-1.175-.465 0-.792.328-1.237.729-.99.4.248.965-.165 1.254-.919.346-.904-.225-1.369-1.681-1.369-1.833 0-2.207.563-2.207 3.328 0 1.83.197 3.13.437 2.89.24-.24.932.24 1.538 1.069s2.44 1.748 4.076 2.045c1.637.297 3.144.709 3.351.915.206.207 1.488-.048 2.848-.565l2.473-.94-2.076 2.639c-1.141 1.451-2.075 3.228-2.075 3.947 0 1.633-3.924 4.462-5.973 4.306-.84-.064-2.427-.334-3.527-.6zm4.5-20.048c0-.185-.657-1.606-1.46-3.16-1.379-2.666-1.182-4.076.57-4.076.426 0 .62.802.432 1.783-.19.981.27 2.894 1.022 4.25.994 1.796 1.375 2.007 1.4.776.02-.93-.374-1.945-.875-2.254-1.01-.625-.923-2.431.205-4.236.406-.65.255-1.48-.336-1.846-.603-.372-.81-1.868-.473-3.404.724-3.295-2.581-8.341-3.98-6.077-.522.844-.424 1.076.271.646.597-.37 1.441-.101 1.876.595 1.181 1.892 1.077 8.85-.125 8.4-.565-.21-.92-.874-.789-1.473.131-.599-.445-.827-1.28-.506-1.32.507-1.299.741.164 1.811 1.181.864 1.339 1.44.53 1.94-.634.392-1.152.236-1.152-.346s-.52-1.06-1.155-1.06c-.65 0-.355.884.676 2.024 1.51 1.668 1.6 2.24.509 3.25-.934.866-1.128.879-.66.046.364-.65.295-1.408-.154-1.686s-.816.563-.816 1.867.36 2.148.8 1.876c.44-.272.8-.114.8.35s.9.845 2 .845 2-.15 2-.335zm-3.543-12.167c.317-.512.193-1.168-.274-1.456-.467-.29-.85.13-.85.93 0 1.687.316 1.834 1.124.526zm2.543-1.447c0-.208-.787-.995-1.75-1.75-1.586-1.244-1.621-1.209-.378.377 1.307 1.666 2.128 2.196 2.128 1.373zm-.333-10.078c0-.8-.383-1.22-.85-.931-.467.289-.59.944-.274 1.456.808 1.308 1.124 1.161 1.124-.525zm4.207-4.099c-1.355-1.354-1.54-1.359-1.54-.037 0 .827.45 1.225 1.003.884.623-.385.727.105.274 1.294-.587 1.54-.483 1.669.537.657 1.021-1.014.968-1.555-.274-2.798zm-3.207.099c0-.801-.383-1.22-.85-.931-.467.289-.59.944-.274 1.456.808 1.308 1.124 1.161 1.124-.525zm8.75-13.41c.295-.477-.352-1.67-1.437-2.652-1.505-1.361-1.707-2.106-.854-3.134.615-.741.828-1.348.473-1.348s.065-1.083.932-2.407c1.125-1.717 1.254-2.608.448-3.106-.766-.473-.428-1.444 1.052-3.02 1.976-2.103 2.007-2.294.325-2.035-1.02.157-2.166-.195-2.544-.782s-.579.364-.445 2.113c.133 1.75.524 3.462.869 3.806.93.93-.297 3.512-1.357 2.856-.501-.31-.607-1.094-.235-1.744.375-.655.283-.821-.207-.375-1.362 1.244-1.229 7.622.184 8.795.693.575 1.014 1.687.713 2.472-.587 1.529 1.19 2.007 2.083.56zM224 129.137c0-.116-.6-.709-1.333-1.317-.997-.827-1.334-.774-1.334.21 0 .725.6 1.318 1.334 1.318.733 0 1.333-.095 1.333-.211zm5.515-1.48c.349-.564.038-.902-.69-.75-.73.15-1.201-.322-1.05-1.05.15-.729-.209-1.026-.799-.661-.753.465-.723 1.085.098 2.074 1.397 1.684 1.618 1.72 2.441.386zm2.367-11.726c-.066-.412-.017-.975.107-1.25s.318-2.112.432-4.083c.135-2.338-.234-3.583-1.063-3.583-.699 0-.966.487-.594 1.083 1.01 1.619 1.054 5.578.067 6.188-.475.293-.605.953-.288 1.465.69 1.117 1.504 1.227 1.339.18zm30.354-4.604c.637.394.783.193.358-.494-.835-1.352-4.594.248-4.594 1.955 0 .57.712.325 1.581-.544s2.064-1.282 2.655-.917zm-62.778.424c.316-.512.193-1.168-.275-1.456-.467-.29-.85.13-.85.93 0 1.687.316 1.834 1.125.526zm30.209-1.57c0-.641-.525-1.166-1.167-1.166s-1.167.525-1.167 1.166.525 1.167 1.167 1.167 1.167-.525 1.167-1.167zm35.833-1.583c0-.504.45-.872 1-.817s.876.539.725 1.075c-.151.536.177.695.73.353.651-.402.573-1.31-.223-2.584-.674-1.08-1.378-1.506-1.565-.947-.186.559-.76.755-1.278.435s-.815.016-.664.744c.15.728-.364 1.186-1.145 1.018-1.182-.255-1.2-.043-.107 1.274 1.283 1.546 2.527 1.275 2.527-.55zm-22.317-1.133c-.718-.718-1.184-.777-1.184-.15 0 1.335 1.183 2.517 1.85 1.85.284-.284-.016-1.05-.666-1.7zm-7.726-.714c.316-.512.193-1.168-.275-1.456-.467-.29-.85.13-.85.93 0 1.687.316 1.834 1.125.526zm-20.791-1.403a1.33 1.33 0 0 0-1.318-1.333c-.984 0-1.038.337-.21 1.333.608.734 1.2 1.333 1.317 1.333s.21-.6.21-1.333zm50.833-4.25c0-.504 1.012-1.929 2.25-3.167s2.318-2.812 2.402-3.5c.084-.687.221-1.7.306-2.25.084-.55 1.15-2.912 2.368-5.25 1.218-2.337 1.953-4.25 1.635-4.25-.319 0-.288-.471.069-1.048.442-.716 1.1-.674 2.071.133.967.802 1.107 1.562.435 2.372-.663.799-.585 1.627.237 2.514.99 1.068.894 1.207-.491.72-.945-.332-1.991-.162-2.325.378-.333.54-.01.857.718.706.993-.206 1.241.977.991 4.725-.183 2.75-.09 4.758.205 4.463.295-.296.65-2.207.787-4.247.174-2.574.687-3.634 1.678-3.463.843.146 1.59-.77 1.825-2.233.373-2.334.315-2.37-.985-.592-1.25 1.71-1.363 1.492-1.183-2.281.109-2.294-.029-3.945-.306-3.668-.277.277-1.047.052-1.713-.5-.836-.694-1.596-.537-2.464.51-.69.83-.964 1.511-.607 1.511.843 0-2.173 5.944-4.274 8.422-.896 1.057-1.067 1.593-.38 1.191 1.403-.82 1.523-.485.646 1.8-.333.867-.977 1.346-1.43 1.065-.455-.28-1.153.017-1.55.66-.453.732-.29.904.43.458.635-.392 1.155-.237 1.155.345 0 .948-1.32 1.453-3.157 1.209-.362-.048-.538.686-.392 1.631.146.946-.233 2.091-.843 2.546-.717.534-.58.681.392.416.825-.225 1.5-.822 1.5-1.326zm-26.833-7.873c0-.8-.383-1.22-.85-.93-.467.288-.59.944-.274 1.456.808 1.308 1.124 1.16 1.124-.526zm1.888-5.965c0-2.432-.268-4.256-.597-4.053-.471.292-.526 7.15-.065 8.224.438 1.023.662-.39.662-4.171zm2.902 1.49c.317-.511.193-1.167-.274-1.455-.467-.29-.85.13-.85.93 0 1.687.316 1.834 1.124.526zm-4.531-6.48c.902-1.087.873-1.583-.128-2.16-.714-.412-.965-.38-.557.07.408.45.24 1.421-.372 2.16-.613.738-.889 1.341-.614 1.341s1.027-.634 1.671-1.41zm11.503-5.827c.372.373.352-.17-.046-1.206-.5-1.302-.365-1.663.436-1.168.785.486.942.152.486-1.035-.417-1.086-.824-1.294-1.074-.546-.22.663-.808.955-1.305.648-.496-.307-.607.214-.244 1.157.443 1.157.28 1.483-.5 1-.781-.482-.944-.156-.5 1 .396 1.033.259 1.47-.345 1.096-.552-.34-1.003.105-1.003.99 0 1.283.346 1.182 1.709-.502.94-1.16 2.014-1.806 2.386-1.434zm29.571 2.63c0-.827-1.942-1.295-2.387-.575-.289.468.13.85.931.85.8 0 1.456-.123 1.456-.274zm-3.543-1.323c.317-.512.193-1.167-.274-1.456-.467-.288-.85.13-.85.931 0 1.687.316 1.834 1.124.525zm1.304-3.319c.052-.687.373-2.375.715-3.75.506-2.04.361-1.948-.789.5-.775 1.65-1.22 3.338-.989 3.75.609 1.087.956.924 1.063-.5zm4.027-4.886c-.25-.75-.703-.296-1.057 1.056-.435 1.664-.305 2.054.437 1.312.582-.581.86-1.647.62-2.368zm-30.33-2.795c.316-.512.193-1.167-.275-1.456-.467-.288-.85.13-.85.931 0 1.687.316 1.834 1.125.525zm7.144-6.8c-.33-.331-.602-.05-.602.624s-.471.934-1.048.577c-.725-.448-.71-1.055.048-1.97.808-.973.755-1.519-.201-2.07-.714-.413-.965-.382-.557.068.407.45.273 1.382-.299 2.071-.692.834-.703 1.461-.035 1.874.553.342.744 1.394.426 2.34-.358 1.06.08.832 1.145-.597.95-1.273 1.455-2.586 1.123-2.917zM248 63.304c0-.208-.787-.995-1.75-1.75-1.586-1.244-1.62-1.209-.377.377 1.306 1.666 2.128 2.196 2.128 1.373zm12.488-9.373a85.43 85.43 0 0 0-.411-2.059c-.042-.17-.548-.017-1.125.34-.717.443-.678 1.094.122 2.059 1.534 1.848 1.82 1.78 1.414-.34zm3.058-5.55c.025-.66.587-1.087 1.25-.95s1.092-.312.954-1 .313-1.137 1-1 1.197-.087 1.132-.5c-.318-2.014.276-2.371 1.868-1.122 1.566 1.228 1.614 1.197.452-.288-.786-1.006-.918-1.896-.336-2.257.53-.327 1.223-.03 1.54.661.317.691.315.212-.005-1.065-.374-1.495.064-3.035 1.231-4.324.997-1.101 1.375-1.916.84-1.81-.534.106-1.647.132-2.472.059-1.208-.108-1.24-.298-.166-.98 1.087-.688 1.058-.951-.156-1.417-1.857-.712-5.308 2.786-3.718 3.769.6.37.966.302.815-.151-.15-.453.175-.824.725-.824s.893.32.762.714c-.13.392.408.466 1.197.163 1.196-.459 1.238-.133.255 1.95-.65 1.376-1.537 2.282-1.972 2.013-.435-.27-.727-.118-.648.335.358 2.06-.218 2.694-1.203 1.324-.916-1.273-.996-1.24-.529.218.303.945.12 1.984-.405 2.31s-1.013.114-1.081-.469a168.98 168.98 0 0 0-.25-1.975c-.07-.504-.535-1.292-1.036-1.75-.523-.48-.623-.332-.233.347.372.65.253 1.443-.264 1.763-.518.32-1.17-.212-1.452-1.181-.426-1.47-.502-1.431-.46.237.088 3.509-.185 4.037-1.29 2.5-.91-1.266-.991-1.227-.516.25.358 1.115.042 1.75-.87 1.75-.789 0-1.96 1.013-2.605 2.25s-.825 1.929-.403 1.536c.421-.394 1.662-.236 2.756.35 1.522.814 1.81.776 1.229-.166-.495-.8-.276-1.053.63-.724.763.277 1.244 1.123 1.067 1.88-.264 1.128-.085 1.142 1 .074.727-.715 1.342-1.84 1.367-2.5zm-1.879.634c-1.165-1.166-.736-3.494.503-2.728.782.483.963.181.544-.91-.344-.897-.243-1.868.225-2.158 1.517-.937 1.988 2.278.513 3.503-.786.652-1.183 1.585-.882 2.073.643 1.04.059 1.182-.903.22zM257 48.288c0-.216.699-.66 1.552-.988.89-.342 1.292-.174.941.393-.587.95-2.493 1.405-2.493.595zM248.614 36.1c.13-.88-.068-1.298-.44-.926-.37.37-.682.975-.69 1.341-.008.367-.412 1.342-.897 2.167-.714 1.216-.628 1.265.456.26.735-.682 1.442-1.96 1.571-2.841zm4.616-10.776c.646.4.789.198.355-.504-.967-1.564-2.615-.448-2.47 1.671.104 1.512.165 1.504.576-.071.253-.97.945-1.462 1.539-1.096zM26.74 182.974c-2.743-.947-6.979-3.705-10-6.511-2.883-2.677-4.22-4.376-2.971-3.776 1.249.6 2.711.82 3.25.487.538-.333.98-.074.98.576 0 .9.333.905 1.402.017.922-.765 1.522-.81 1.75-.13.204.608 4.257 1.06 9.847 1.099 9.39.064 17.013-1.47 23.237-4.677 4.38-2.256 9.817-7.469 9.1-8.723-.361-.632-.289-.816.161-.408 1.295 1.173 3.694-1.306 2.572-2.658-.61-.736-.581-1.679.082-2.617.853-1.206.938-1.156.474.284-.88 2.737.076 2.055 1.71-1.22.94-1.886 1.075-2.89.368-2.75-.997.197-1.213-.952-.828-4.403.084-.757.694-.681 1.875.233 1.64 1.27 1.648 1.23.13-.628-2.139-2.618-1.404-5.12.967-3.291 1.53 1.18 1.532 1.127.033-.709-2.144-2.624-1.405-5.128.967-3.274 1.44 1.126 1.493 1.087.411-.3-.682-.876-.907-1.96-.5-2.41.408-.45.21-.514-.44-.142s-1.506.15-1.904-.494c-.424-.686-.292-.905.318-.528.572.354 1.655-.113 2.404-1.037 1.173-1.447 1.154-1.558-.136-.797-1.334.785-1.334.674 0-1 .874-1.098.978-1.57.25-1.133-1.666 1-1.594-.166.114-1.874 1.056-1.056 1.654-1.097 2.647-.179 1.013.937 1.097.872.4-.314-.484-.825-.888-1.8-.896-2.167-.008-.367-.425-1.042-.926-1.5-.52-.476-.632-.346-.26.303.356.626-.036 1.705-.872 2.4-1.332 1.105-1.392.922-.482-1.471.571-1.503.741-3.215.377-3.804-.416-.673-.183-.775.627-.274.977.604 1.18.047.836-2.292-.25-1.7-.069-2.852.402-2.561 1.281.792.258-8.357-1.121-10.018-.813-.98-.86-1.644-.145-2.086 1.04-.643 1.183-.492 1.424 1.507.068.57.8 1.463 1.625 1.984.995.63 1.08.954.25.964-.688.008-1.25.492-1.25 1.074 0 .604.537.718 1.25.265.687-.436 1.55-.8 1.916-.809.367-.008 1.042-.39 1.5-.848.459-.459.159-.684-.666-.5-.83.184-1.378-.258-1.226-.991.152-.729-.142-1.067-.652-.751-.934.577-3.341-4.873-2.516-5.697.243-.244-.234-1.004-1.061-1.69-1.16-.963-1.257-1.709-.424-3.264.701-1.311.718-1.793.047-1.378-.592.366-1.178-.543-1.374-2.129-.34-2.755-.344-2.753-.887.43-.3 1.759-.175 2.969.277 2.69 1.238-.766.406 3.197-1.036 4.935-1.035 1.247-.938 1.703.546 2.567.993.578 1.273 1.064.622 1.08-.713.019-1.003 1.026-.73 2.53.254 1.403-.021 2.5-.626 2.5-.593 0-.8-.45-.46-1s.155-1-.41-1-.745-.787-.4-1.75c.346-.962.263-1.417-.185-1.012-.447.405-.89 1.755-.987 3-.095 1.245-.68 4.063-1.3 6.263s-1.37 5.193-1.667 6.652c-.637 3.127-8.115 8.488-13.162 9.435-5.41 1.015-11.14-2.45-16.123-9.751-4.136-6.058-4.85-8.395-1.79-5.856 1.239 1.029 1.526 1.009 1.539-.108.012-1.078.223-1.05.984.128.534.825.977 1.085.985.579.008-.507-.73-1.744-1.64-2.75-.91-1.006-1.205-1.829-.655-1.829 1.569 0 4.4 3.569 3.563 4.492-.414.456-.19.505.497.11.712-.41 1.25-.192 1.25.506 0 .674.298.928.66.565.364-.363-.087-1.487-1.001-2.498-.915-1.01-1.324-2.21-.91-2.666.413-.456.24-.537-.385-.18-.625.357-1.543.091-2.038-.59-1.325-1.821-1.637-6.739-.429-6.739.573 0 .789-.657.48-1.46-.8-2.087 1.25-10.855 3.825-16.35 1.209-2.58 2.22-4.99 2.248-5.356.028-.367.388-1.005.8-1.417 1.11-1.11.91-2.634-.25-1.917-1.033.639-1.374-.635-1.033-3.86.136-1.292-.21-1.624-1.135-1.088-.733.424-.213-.457 1.155-1.957l2.487-2.728 1.763 2.177c.97 1.198 1.763 1.756 1.763 1.241s-1.12-1.988-2.487-3.273c-1.856-1.744-2.215-2.665-1.414-3.63.59-.712.824-1.698.52-2.19-.305-.494.092-1.751.882-2.794.79-1.044 1.447-2.348 1.461-2.898.014-.55-.793.241-1.794 1.758-1 1.517-2.126 2.534-2.501 2.259s-.23.036.325.692c1.592 1.881 1.174 3.174-.561 1.734-.863-.717-1.36-2.107-1.103-3.089.257-.982.176-1.688-.18-1.57-1.98.66-1.246-1.529 1.536-4.586 1.75-1.924 2.875-3.84 2.5-4.258-.376-.418-.121-.437.566-.041.846.486 1.255-.028 1.266-1.59.012-1.857.205-2.016.984-.809.784 1.213.973 1.07.985-.75.008-1.237.492-2.25 1.074-2.25s.806.41.496.912c-.31.502.201.8 1.136.663s1.872-.885 2.081-1.662c.301-1.118.19-1.142-.534-.116-.726 1.03-1.205.94-2.326-.441-.91-1.122-.968-1.473-.162-.989.815.49 1.256.121 1.266-1.058.011-1.384.215-1.493.867-.464.635 1.001 1.011.715 1.472-1.121.87-3.468 7.122-7.926 11.886-8.476 4.131-.477 5.728.103 14.076 5.114 4.046 2.429 5.515 2.796 9.182 2.293 5.259-.72 9.868.716 11.771 3.67 2.105 3.265 5.988 21.285 5.155 23.917-.393 1.242-2.45 5.997-4.57 10.568-2.12 4.57-3.855 8.564-3.855 8.875 0 .31-1.757 5.347-3.904 11.19-4.231 11.517-7.127 22.33-12.66 47.284-4.117 18.558-6.652 24.868-12.08 30.068-6.337 6.07-14.922 9.017-27.355 9.39-7.813.236-11.718-.104-15.259-1.328zm48.96-57.919c-.348-.347-.197-1.445.336-2.439.677-1.265.591-2.024-.286-2.529-.689-.396-.93-.364-.537.071.393.436.296 1.574-.215 2.529-.844 1.576-.448 3 .833 3 .275 0 .216-.284-.131-.632zM49.67 114.12c.777-1.063 1.732-1.759 2.12-1.546s1.263-.686 1.943-2 1.242-2.018 1.25-1.566c.022 1.262 3.014-2.022 3.014-3.309 0-.622.497-.823 1.104-.448.607.375.33-.498-.615-1.941-.945-1.443-1.442-2.623-1.104-2.623h1.365c.413 0 .75.525.75 1.166 0 .642.563 1.355 1.25 1.584 1.494.497 1.686-1.363.234-2.26-.559-.346-.728-1.096-.375-1.666.414-.67.947-.556 1.501.319.685 1.08.863 1.09.875.048.01-.763.537-1.01 1.265-.59.688.396.916.35.507-.101-.41-.452.15-1.447 1.242-2.212 2.017-1.412 5.046-6.052 3.21-4.918-.544.337-1.697-.467-2.562-1.787-1.426-2.176-1.427-2.52-.009-3.698 2.209-1.832 4.636-2.04 3.984-.34-.294.765-.169 1.617.278 1.893.991.612.866-5.006-.133-6.005-.392-.392-.387-1.212.01-1.823.398-.61.77-1.785.825-2.61.296-4.353.485-5 1.457-5 .583 0 .828.375.544.833-.283.458.066.833.775.833.709 0 1.29-.58 1.29-1.289s-.345-1.077-.765-.817c-1.4.866-1.94-1.379-.662-2.754 1.484-1.596 2.08-3.82 1.01-3.773-2.145.095-10.208 9.452-16.478 19.121-2.88 4.442-9.773 18.105-9.773 19.373 0 .138.788.188 1.75.112 1.959-.156 4.327-2.706 3.603-3.878-.26-.419-.038-.761.49-.761s1.897-1.463 3.042-3.25 2.127-3.025 2.182-2.75c.553 2.76.453 5.178-.23 5.601-.46.284-.843-.297-.852-1.292-.011-1.407-.31-1.253-1.343.69-.73 1.376-1.19 3.78-1.021 5.344.234 2.158-.045 2.708-1.157 2.281-.805-.309-1.464-.04-1.464.598s-.585.36-1.3-.619c-1.239-1.693-1.5-1.675-5.445.381-2.28 1.188-4.957 2.076-5.95 1.973-4.08-.424-4.777.023-2.51 1.611 1.231.863 1.937 2.057 1.567 2.655-.4.648-.206.798.484.372 1.008-.623 1.576.487 1.307 2.553-.198 1.517 6.228.052 7.52-1.714zm-.07-6.267c-.283-.458.12-.833.897-.833s1.18.375.897.833c-.283.459-.686.834-.897.834s-.613-.375-.897-.834zm11.908-10.149c-.346-.56-.407-1.377-.136-1.815s.11-1.418-.358-2.176c-.56-.905-.023-2.463 1.566-4.546 1.33-1.743 2.417-3.674 2.417-4.29 0-1.708 4.026-3.565 5.195-2.396.64.64.602 1.213-.108 1.652-.597.37-1.087.17-1.087-.443s-1.08.14-2.4 1.676c-2.387 2.774-2.39 2.806-.5 5.46 1.045 1.468 1.9 2.906 1.9 3.197 0 1.279-5.903 4.628-6.488 3.681zm3.998-2.252c.447.404.512.21.145-.43-.366-.64-.245-1.316.27-1.5.515-.185.293-1.21-.494-2.277-.786-1.067-1.43-1.378-1.43-.69 0 .687-.419.99-.93.674s-1.2-.142-1.527.389c-.335.541.322.787 1.5.56 1.333-.257 1.933.035 1.65.802-.243.664-.853 1.126-1.353 1.028-.501-.099-.911.72-.911 1.817 0 1.733.149 1.792 1.134.444.624-.853 1.5-1.221 1.946-.817zm3.36-16.108c.613-.738.897-1.642.631-2.009-.266-.366.014-.251.622.255 1.227 1.024.355 3.096-1.303 3.096-.726 0-.71-.426.05-1.342zm8.752 34.72c.126-.859-.05-1.283-.391-.941-.342.341-.724 1.323-.85 2.183-.126.86.05 1.283.391.942.341-.341.724-1.324.85-2.183zm-22.05-10.545c0-1.009-.112-1.834-.25-1.834s-.692.825-1.231 1.834c-.705 1.316-.634 1.833.25 1.833.678 0 1.232-.825 1.232-1.833zm25.096.722c0-.794-.488-1.357-1.083-1.25-.596.107-.96-.402-.809-1.13.153-.737-.208-1.026-.815-.65-.733.452-.526 1.296.63 2.574 2.063 2.279 2.077 2.282 2.077.456zm-4.105-20.972c-.204-3.831-1.133-3.92-1.133-.109 0 1.858.285 3.203.633 2.988.348-.216.573-1.511.5-2.88zm-2.165-6.417c.284-.458-.12-.833-.897-.833s-1.18.375-.897.833c.284.459.687.834.897.834s.614-.375.897-.833zm-30.382-2.916c.013-2.216.221-2.46 1.076-1.25.943 1.333 1.016 1.333.652 0-.705-2.583-3.061-1.66-3.189 1.25-.066 1.512.232 2.75.663 2.75s.79-1.238.798-2.75zm3.857-5.937c-1.192-1.466-1.157-1.607.265-1.075 1.273.476 1.531.129 1.163-1.563-.383-1.76-.27-1.89.598-.675.755 1.057 1.113 1.13 1.212.25.374-3.338.565-3.733 1.685-3.5.663.137 1.152-.088 1.087-.5-.066-.413-.059-1.425.015-2.25.119-1.333.243-1.333 1.121 0 .784 1.19.923 1.04.677-.724-.17-1.224-.585-2.5-.921-2.835-.336-.336-.424-1.644-.195-2.906.254-1.399-.265-2.81-1.331-3.616-1.487-1.125-1.561-1.113-.498.08 1.688 1.892 1.594 3.531-.121 2.108-1.074-.891-1.37-.755-1.363.628.016 3.497-.283 4.372-1.282 3.755-.56-.346-.715-1.117-.346-1.714.38-.615.21-.8-.394-.427-.586.363-.93 1.445-.766 2.405.166.96-.343 2.771-1.13 4.024-.787 1.253-1.217 2.625-.956 3.048.262.423.078 1.413-.407 2.199-.58.937-.331 2.04.72 3.202 2.043 2.257 2.99 2.327 1.167.086zm-.962-2.932c.56-1.165.774-2.363.475-2.663-.3-.3.168-1.632 1.039-2.961.87-1.33 1.244-2.79.83-3.247-.415-.457-.214-.521.446-.142 1.373.787 3.612-2.682 2.515-3.897-.393-.435-.145-.464.551-.062.697.4 1.027 1.117.734 1.59s-.053 1.16.534 1.522c.679.42.156 1.852-1.44 3.945-1.38 1.808-2.19 3.605-1.8 3.994.388.389.175.557-.473.373-.65-.183-1.911.567-2.806 1.667-1.608 1.979-1.615 1.978-.605-.119zm5.105-6.874c2.397-2.887 2.402-2.923.142-1.011-1.288 1.09-2.806 2.887-3.372 3.993-1.088 2.124-.753 1.814 3.23-2.982zm-7.423-1.748c.5.407.574.332.167-.167s-.24-1.512.372-2.25c2.086-2.513.227-1.353-2.207 1.378-1.333 1.495-1.708 2.174-.832 1.508s2-.877 2.5-.47zm13.79-1.311c.341-.89.174-1.291-.393-.941-.544.336-.989 1.034-.989 1.552 0 1.438.717 1.121 1.382-.611zm2.913-3.767c-1.135-1.815-1.215-3.613-.19-4.246.51-.315.665-1 .343-1.52-.322-.522-1.081-.642-1.687-.267-.665.41-.896.12-.582-.734.285-.778-.068-2.764-.785-4.414s-1.324-2.408-1.349-1.684c-.024.723.421 2.186.99 3.25.73 1.364.713 1.934-.058 1.934-.602 0-.848.399-.547.887.75 1.211-1.893 3.277-3.011 2.354-.494-.408-.114.195.844 1.34s1.516 2.382 1.24 2.75c-.277.368-.165.406.247.085.413-.32.75-1.445.75-2.5 0-2.552 1.965-2.475 2.125.084.07 1.1.235 2.337.369 2.75s.179 1.12.1 1.574c-.079.453.325.535.898.181.572-.354.709-1.175.303-1.824zm5.22-3.706c.349-.564.038-.901-.69-.75-.729.151-1.201-.321-1.05-1.05.151-.728-.208-1.025-.798-.66-.753.465-.724 1.084.097 2.074 1.398 1.684 1.618 1.719 2.442.386zm-3.848-4.431c0-.801-.382-1.22-.85-.931-.467.289-.59.944-.274 1.456.809 1.308 1.124 1.161 1.124-.525zm-6.21-.475c.317-.512.194-1.167-.274-1.456-.467-.289-.85.13-.85.93 0 1.687.316 1.834 1.125.526zm4.19-3.982c-.065-1.603-.422-2.726-.793-2.496-.372.23-.525 1.203-.341 2.163.184.96.369 2.083.41 2.496.043.412.25.75.46.75s.33-1.311.265-2.913zm6.81-4.018c.317-.512.194-1.167-.274-1.456-.467-.289-.85.13-.85.93 0 1.687.316 1.834 1.125.526zm152.81 142c.08-1.062.483-1.723.895-1.468s.495 1.123.185 1.93c-.78 2.036-1.252 1.834-1.08-.462zm-205.81-14.136c-1.076-1.741.15-2.11 1.522-.458.789.95.864 1.524.201 1.524-.585 0-1.36-.48-1.722-1.066zm206.05-8.557c-.945-1.442-1.224-2.317-.62-1.944 1.155.713 3.483 4.567 2.76 4.567-.231 0-1.194-1.18-2.14-2.623zm2.032-3.307c-.316-.512-.193-1.168.274-1.456.468-.29.85.13.85.93 0 1.687-.315 1.834-1.124.526zm2.457-3.747c0-.508.563-1.529 1.25-2.27.688-.74.748-1.066.134-.723-1.695.946-4.464-2.581-3.39-4.319.559-.905.447-1.994-.3-2.919-.916-1.132-.917-1.31-.005-.762.665.399 1.69-.067 2.326-1.058.904-1.41 1.035-1.439.64-.143-.274.895.03 2.199.674 2.896.896.97.894 1.113-.01.606-2.246-1.261-2.654 1.68-.477 3.442 2.545 2.061 2.702 3.232.659 4.927-.825.685-1.5.83-1.5.323zm1-3.7c0-.208-.787-.995-1.75-1.75-1.586-1.244-1.621-1.209-.377.377 1.306 1.666 2.127 2.196 2.127 1.373zm-107.55-12.983c-6.093-2.747-10.574-10.754-10.847-19.387-.056-1.786-.44-3.249-.853-3.25-1.367-.005-.777-4.032.996-6.788 2.849-4.43 6.897-8.874 23.239-25.51 8.534-8.686 15.704-16 15.935-16.251.23-.252-2.37-.167-5.78.19-5.552.58-6.451.412-8.602-1.608-1.9-1.785-2.525-3.646-2.993-8.896a800.22 800.22 0 0 0-1.09-11.3l-.5-4.661 6.273-2.003c3.45-1.102 7.398-2.23 8.773-2.507s6.1-1.433 10.5-2.568 12.511-2.592 18.025-3.236c9.078-1.061 10.384-1.001 13.825.632 6.545 3.106 7.179 5.002 5.792 17.339-.66 5.866-1.974 12.16-2.92 13.987-1.512 2.916-7.616 9.03-35.221 35.273l-6.5 6.179 4.732-.615c5.966-.775 10.052.027 12.698 2.492 1.75 1.63 2.051 3.043 1.951 9.139-.204 12.449-.333 12.675-8.381 14.733-3.85.985-11.761 3.39-17.58 5.345-13.066 4.39-17.493 5.065-21.47 3.273zm-49.575-10.64a210.18 210.18 0 0 0-.25-1.917c-.068-.504-.446-1.238-.84-1.631-.972-.973.99-4.456 2.5-4.437.909.012.922.202.05.756-.665.424-1.009 2.344-.801 4.485.2 2.06.161 3.744-.085 3.744s-.505-.45-.574-1zm180.81-9.12c-1.76-1.023-1.76-1.102 0-2.388 1.001-.732 1.876-1.817 1.945-2.412l.25-2.14c.069-.582.623-.75 1.232-.374.772.477.696.944-.25 1.543-1.107.702-1.08.869.143.906 1.215.037 1.18.233-.19 1.031-.96.56-1.524 1.841-1.307 2.97.21 1.09.296 1.97.19 1.953-.106-.016-1.012-.506-2.013-1.088zm19.4-6.464c.047-1.165.284-1.401.604-.604.288.722.253 1.585-.08 1.917-.332.332-.568-.258-.525-1.313zm-11.537-.347c-.316-.512-.193-1.167.275-1.456.467-.289.85.13.85.93 0 1.687-.316 1.834-1.125.526zm-187.04-1.07c.34-.55 1.38-.992 2.31-.984 1.457.013 1.483.15.19.985-1.958 1.265-3.282 1.265-2.5 0zm169.96-1.066c-.362-.586-.444-1.28-.182-1.543.262-.262.743.218 1.069 1.067.676 1.762.1 2.072-.887.476zm30.88-2.196c-.317-.511.217-1.673 1.185-2.583 1.605-1.508 1.711-1.51 1.197-.026-.31.895-.134 2.058.391 2.583.607.607.38.955-.622.955-.867 0-1.836-.418-2.151-.929zM38.93 80.023c-1.334-1.464-1.75-2.258-.925-1.765s1.907.903 2.405.911c.497.008 1.02.803 1.161 1.765.334 2.273.225 2.235-2.642-.91zm-.382-3.27c-.317-.512-.193-1.167.274-1.456.467-.288.85.13.85.931 0 1.687-.316 1.834-1.124.525zm242.01.017a1.117 1.117 0 0 1 .362-1.533 1.117 1.117 0 0 1 1.532.362c.322.52.16 1.21-.362 1.533-.52.322-1.21.159-1.532-.362zm-244.2-4.846c.363-.588.095-1.297-.596-1.575-.899-.363-.917-.53-.065-.586 1.72-.114 2.548 1.656 1.17 2.507-.697.431-.903.291-.51-.346zm.263-5.485c.276-1.24.615-2.822.754-3.515.138-.693.787-1.795 1.441-2.45.92-.92 1.19-.85 1.19.31 0 .825-.469 1.97-1.042 2.543-.724.723-.513 1.473.687 2.45 1.524 1.24 1.654 1.206 1.093-.292-.46-1.23-.225-1.541.856-1.126.82.315 1.252.813.958 1.107-.294.294.024 1.25.707 2.126 1.12 1.438 1.056 1.447-.663.092-1.047-.825-2.172-1.343-2.5-1.151-3.69 2.157-3.98 2.15-3.481-.094zm242.39-25.246c-1.693-1.802-2.676-2.2-3.582-1.447-1.969 1.634-2.42-.355-.584-2.581 1.461-1.771 3.06-2.28 4.658-1.48.275.137.95.306 1.5.375s1 .462 1 .875-.287.711-.638.664c-1.012-.135-2.286 2.4-1.69 3.363.296.48 1.726-.173 3.176-1.452 1.881-1.658 2.158-1.752.966-.325-.92 1.1-1.666 2.375-1.66 2.833.027 1.8-.911 1.554-3.146-.825zm.365-4.713c-.272-.44-1.367-.334-2.434.237-2.288 1.225-2.596 2.157-.439 1.33.876-.337 1.506-.012 1.515.78.012 1.076.206 1.056.934-.095.506-.798.696-1.812.424-2.252zm-6.123-5.826c-3.02-1.214-2.834-1.648.75-1.75 1.977-.056 3 .403 3 1.348 0 1.623-.562 1.683-3.75.402zm-19.177-8.381c-1.777-2.14.45-6.23 2.476-4.548 1.255 1.042.82 3.435-1.042 5.734-.122.15-.768-.383-1.434-1.186zm1.734-3.115c-.308-.308-.867.247-1.243 1.234-.543 1.425-.428 1.54.56.56.683-.679.99-1.486.683-1.794z" fill="#4447ce"/><path d="M214.5 191.965c-1.1-.266-3.012-1.418-4.25-2.559-3.935-3.628-2.755-14.92 5.666-54.226 2.121-9.9 3.737-18.133 3.592-18.295-.146-.162-2.007 1.424-4.137 3.524-10.59 10.447-22.499 9.511-28.37-2.23-2.182-4.361-2.494-6.273-2.451-14.999.044-8.924 1.602-21.392 3.187-25.5.318-.825.47-2.144.336-2.931-.134-.787.756-2.185 1.978-3.107 1.68-1.267 1.907-1.87.93-2.473-.847-.524-1.045-.402-.576.357.392.635.237 1.154-.346 1.154S189 69.953 189 69.064c0-1.15.607-1.458 2.1-1.068 1.154.302 1.842.292 1.529-.02-.313-.314.285-1.77 1.33-3.238 1.38-1.937 1.62-3.064.876-4.113-.836-1.18-.922-1.13-.473.273.303.945.155 1.963-.33 2.262-.484.3-1.104-.248-1.377-1.218s-.42-.46-.326 1.133c.094 1.593-.367 3.084-1.024 3.315-1.722.605-.595-4.715 1.509-7.123 1.047-1.198 1.157-1.62.29-1.11-1.12.659-1.252.25-.67-2.068.399-1.589 1.197-3.18 1.774-3.537a1.226 1.226 0 0 0 .411-1.68c-.35-.567.058-1.726.908-2.576s1.57-1.898 1.6-2.33c.03-.432.607-2.136 1.28-3.786s2.062-7.05 3.084-12c1.022-4.95 2.665-10.332 3.651-11.96 1.094-1.807 1.407-3.2.802-3.574-.562-.348-.047-1.446 1.19-2.54 2.169-1.916 2.177-1.914 1.617.323-.31 1.237-.124 2.52.411 2.851.536.332.744 1.203.463 1.937s-.014 1.5.594 1.703 1.219 1.134 1.356 2.07c.138.935-.16 1.446-.662 1.136-1.306-.807-1.129.938.233 2.3 1.73 1.73 6.88.384 11.085-2.897 2.052-1.602 3.553-2.335 3.335-1.63-.218.705-1.386 5.453-2.597 10.55-1.65 6.95-2.799 9.74-4.585 11.145-1.311 1.03-2.39 2.71-2.399 3.73-.012 1.517-.183 1.59-.934.404-.505-.798-.726-1.764-.49-2.145.235-.38-.309-.976-1.21-1.321s-1.363-.902-1.029-1.236c.334-.335-.017-1.5-.781-2.592-.765-1.09-1.272-2.494-1.13-3.118.144-.624.072-.795-.16-.38-.232.417-.921.448-1.533.07-.61-.377-.154.657 1.015 2.3 2.27 3.186 1.86 5.26-.952 4.826-.945-.146-1.62.255-1.5.892.12.636-.25 1.075-.823.976-.573-.1-1.109.698-1.19 1.771-.08 1.074.201 1.738.626 1.475.425-.262.773.158.773.935s-.39 1.17-.867.876c-.477-.295-.662.597-.411 1.982.36 1.988.104 2.42-1.216 2.05-.92-.259-.673.057.55.701 1.495.788 2.092 1.861 1.824 3.281-.219 1.16-.431 2.727-.472 3.482-.058 1.067-.388 1.112-1.486.201-.99-.82-1.609-.85-2.074-.097-.365.59-.094.95.602.798.695-.15 1.44.535 1.657 1.524.475 2.18-1.596 4.93-3.041 4.036-.619-.382-.74-.157-.301.555.407.659.14 1.94-.596 2.846-.734.907-.82 1.34-.19.962 1.88-1.127 2.377 2.045.545 3.48-1.52 1.188-1.551 1.145-.318-.427.898-1.146.984-1.75.25-1.75-.618 0-1.123.476-1.123 1.059s-.41.805-.91.496c-.706-.437-.786-4.055-.09-4.055.085 0 .31-.83.502-1.842.192-1.013.045-1.538-.327-1.167-.37.372-.73 1.088-.8 1.592-.068.504-.225 1.03-.349 1.167-.652.727-.594 5.601.062 5.196.426-.264 1.057-.022 1.402.537.56.905-.711 1.444-2.704 1.147-.687-.102-.09 2.291 1.09 4.37 1.036 1.823 1.014 3.838-.064 5.852-.833 1.555-.704 2.253.591 3.2 1.417 1.036 1.443 1.293.178 1.778-1.672.642-2.726-1.753-2.124-4.83.215-1.1.481-2.113.592-2.25.787-.977.298-3.14-1.213-5.363-.977-1.437-1.468-2.921-1.091-3.298.963-.964 1.112-5.619.16-5.03-.43.265-.612 1.364-.405 2.44s-.005 2.195-.472 2.484c-.468.289-.031 2.208.97 4.265 1 2.057 1.53 4.193 1.176 4.746-.662 1.035-.822 1.602-1.064 3.756-.098.877-.418.81-1.074-.227-.627-.992-.474-1.986.464-3.023.962-1.062 1.096-2.008.43-3.023-.84-1.281-1.141-1.25-2.277.23-1.235 1.609-1.418 1.609-3.198 0-1.83-1.655-1.835-1.643-.171.372 2.442 2.957 2.125 4.08-.516 1.826-1.818-1.551-1.981-1.58-.878-.155.745.962 1.02 1.75.61 1.75s-.243.604.37 1.342.881 1.574.598 1.857c-.284.284.17 1.085 1.008 1.78.839.696 1.524 1.739 1.524 2.317s-1.237-.039-2.75-1.372l-2.75-2.424 2.243 2.557c1.807 2.06 2.002 2.817 1 3.896-.99 1.069-.99 1.197.007.634 1.355-.764 1.604.328.646 2.825-.333.867-1.081 1.282-1.663.922-2.808-1.735 4.225 8.4 7.267 10.474 6.656 4.537 18.46 1.376 25.323-6.78 3.645-4.332 5.095-4.82 4.23-1.427a159.74 159.74 0 0 0-1.064 4.4c-.177.824-.849 3.75-1.492 6.5s-1.38 6.124-1.638 7.5-1.61 8.124-3.005 15-2.712 13.4-2.928 14.5-.617 3.124-.892 4.5c-1.968 9.846-2.657 19.545-1.588 22.356 1.701 4.475 9.936 6.688 14.466 3.889.578-.358.047.627-1.18 2.187-1.228 1.56-2.232 3.426-2.232 4.145 0 1.633-3.923 4.462-5.972 4.306-.84-.064-2.428-.334-3.528-.6zm-23.907-116.28c.115-1.655-.227-3.008-.76-3.008-.532 0-.687.883-.345 1.962s.093 2.992-.555 4.25c-.969 1.883-.945 2.068.137 1.046.723-.684 1.409-2.596 1.523-4.25zm7.964-12.483c.072-1.348-.209-2.24-.624-1.984-.415.257-.627 1.252-.472 2.213s-.2 2.42-.79 3.246c-.892 1.245-.834 1.285.34.237.778-.695 1.474-2.365 1.546-3.712zm4.9 1.544c.317-.512.194-1.167-.274-1.456-.467-.29-.85.13-.85.93 0 1.687.316 1.834 1.125.526zm-6.996-6.195c-.496-1.563-.341-1.919.587-1.345.904.559 1.01.382.372-.625-.489-.772-.952-1.742-1.03-2.154a47.048 47.048 0 0 0-.265-1.31c-.068-.307-.582-.276-1.14.07-.56.345-.684 1.16-.277 1.809.407.65.795 1.63.864 2.18l.276 2.25c.084.688.408 1.25.72 1.25s.264-.956-.107-2.125zm3.64-5.312c.522.322.825-.01.674-.738-.169-.814.497-1.218 1.725-1.05 1.844.254 1.862.19.23-.81-.975-.598-1.53-1.478-1.234-1.957s.01-1.195-.634-1.593c-.704-.435-.903-.291-.5.362a1.289 1.289 0 0 1-.43 1.766c-.71.438-.981-.158-.766-1.681.417-2.948 1.964-2.863 3.523.194 1.147 2.25 1.185 2.217 1.096-.922-.06-2.136-.378-2.803-.923-1.943-.724 1.142-1.229.521-1.036-1.274.035-.32-.567-.583-1.337-.583s-1.188.344-.928.764c.26.42.015 1.047-.544 1.393-.56.345-1.017 1.528-1.017 2.628s-.419 1.74-.93 1.424c-1.622-1.001-2.114 1.176-.559 2.467.82.68 1.542 1.968 1.605 2.863.097 1.361.192 1.34.576-.135.253-.969.887-1.498 1.409-1.175zm-2.935-1.862c-.834-1.006-.532-1.3 1.334-1.3s2.169.294 1.334 1.3c-.593.715-1.193 1.3-1.334 1.3s-.74-.585-1.334-1.3zm19.74-14.535c-.505-.185-.645-.777-.312-1.317s-.226-.84-1.244-.665c-1.22.209-1.736-.194-1.517-1.183.184-.825-.017-1.15-.445-.721-2.164 2.163-.426 7.457 1.975 6.018.708-.424.669-.102-.104.853-.683.844-.91 1.866-.504 2.271.405.406 1.262-.536 1.903-2.092.668-1.62.774-2.972.248-3.164zM213 36.618c0-.582.45-.78 1-.441s1 .817 1 1.059-.45.441-1 .441-1-.477-1-1.059zm-10.008 2.554c1.419.877 2.335-1.568 1.062-2.832-.895-.887-.996-.689-.426.837.687 1.842.598 1.881-1.133.5-1.033-.825-1.56-.969-1.17-.32s.25 1.465-.309 1.81c-.559.345-1.002 1.164-.986 1.819.017.655.495.394 1.062-.58.567-.974 1.422-1.53 1.9-1.234zm4.775-2.412c-.66-.87-1.304-1.746-1.43-1.946-.127-.2-.164.513-.083 1.583.08 1.07.724 1.947 1.43 1.947 1.01 0 1.028-.338.083-1.584zm1.733-15.083c.995-1.1 1.398-2 .895-2-.503 0-1.476.9-2.163 2s-1.09 2-.896 2 1.168-.9 2.164-2zm-1.877-2.538c-.257-.67.06-1.814.705-2.542.971-1.097.874-1.098-.567-.008-.957.723-1.48 1.734-1.164 2.246s-.026 1.698-.761 2.636c-1.211 1.547-1.168 1.574.46.296.987-.775 1.584-1.958 1.327-2.628zm-180.88 163.83c-2.68-.926-7.047-3.742-10-6.448-5.116-4.69-5.157-4.77-1.723-3.405 8.77 3.486 23.798 2.854 35.387-1.488 5.554-2.08 14.106-8.605 16.78-12.802 2.404-3.772 6.508-18.363 9.757-34.685 1.537-7.722 3.728-16.947 4.868-20.5 10.272-31.999 11.251-35.72 9.047-34.393-1.122.675-1.133.54-.065-.778.885-1.093.947-1.71.196-1.96-1.735-.578-1.942-7.614-.319-10.867 1.798-3.604 2.08-3.67 2.08-.48 0 1.365-.362 2.258-.805 1.984-1.199-.741-2.18 1.345-1.3 2.767 1.137 1.84 1.16 4.764.03 4.066-.553-.342-.667-.096-.26.563.997 1.612 2.632.422 1.93-1.405-.418-1.091-.099-1.3 1.218-.794 1.459.56 1.643.333 1.006-1.24-.428-1.057-.951-3.723-1.163-5.923-.592-6.155-.665-6.402-1.822-6.194-.596.107-.952-.423-.792-1.178.187-.881-.27-1.158-1.273-.773-1.22.468-1.368.22-.671-1.127.491-.95.767-2.515.612-3.478-.155-.962.18-1.75.746-1.75s.827 1.05.582 2.334c-.26 1.358.038 2.333.713 2.333.695 0 .969-.994.684-2.482-.327-1.714-.115-2.26.687-1.764.639.394.922 1.105.629 1.58s-.135 1.107.352 1.408c.486.3.83-.448.766-1.662-.073-1.367.548-2.339 1.632-2.55.962-.19 1.75.125 1.75.698s-.788.79-1.75.48c-1.048-.337-1.324-.225-.689.28.584.465 1.003 2.556.93 4.647-.072 2.092.168 3.987.532 4.213.365.225.579-1.374.475-3.553-.103-2.179.192-3.962.657-3.962.72 0 1.236 2.067 1.019 4.083-.035.321.602.584 1.415.584 1.017 0 1.155-.322.444-1.034-1.335-1.335-1.323-2.633.026-2.633.582 0 .8.42.484.931a1.1 1.1 0 0 0 .36 1.509c1.485.918 5.264 18.458 4.497 20.879-.38 1.2-2.425 5.92-4.545 10.49-2.12 4.571-3.855 8.565-3.855 8.876 0 .31-1.757 5.346-3.904 11.19-4.232 11.517-7.127 22.33-12.661 47.284-4.116 18.558-6.651 24.868-12.08 30.068-6.336 6.07-14.921 9.017-27.354 9.39-7.813.236-11.718-.104-15.26-1.328zm69.554-126.96c-.285-.744.094-2.11.843-3.033.806-.994.877-1.388.173-.966-.67.402-1.638-.06-2.22-1.058-.566-.974-1.044-1.235-1.06-.58-.018.655.339 1.42.79 1.699.453.28.69 2.218.529 4.309-.192 2.491.01 3.315.586 2.392.483-.775.645-2.019.36-2.763zm4.472-5.411c.945-1.246.928-1.584-.083-1.584-.706 0-1.35.876-1.43 1.947-.08 1.07-.044 1.783.082 1.583.127-.2.77-1.075 1.43-1.946zm-85.895 111.33c-1.244-1.586-1.209-1.622.377-.378.963.755 1.75 1.543 1.75 1.75 0 .823-.82.293-2.127-1.372zm28.628-32.241c-2.656-1.321-5.423-4.071-8.234-8.183-4.508-6.595-4.798-8.013-1.108-5.428 3.63 2.543 9.788 2.027 14.896-1.249 4.339-2.782 12.225-10.684 18.636-18.673 3.403-4.24 3.542-3.758 1.305 4.528-.667 2.473-1.405 5.548-1.64 6.833-.234 1.285-1.085 4.867-1.89 7.96S64 121.843 64 122.752c0 2.75-10.255 8.927-14.815 8.925-.926 0-3.484-.896-5.684-1.99zm74.95.63c-1.677-.756-4.253-2.804-5.724-4.552-2.453-2.916-3.285-5.033-5.335-13.587l-.719-3 4.139 3.724c5.08 4.573 8.133 5.41 14.7 4.032 7.632-1.6 26.024-8.838 25.738-10.129-.31-1.4.958-1.46 2.541-.12.656.555.975.71.709.343-.266-.367.076-1.357.758-2.2 1.032-1.275.988-1.38-.258-.619-.825.504-2.175.927-3 .942-.825.015-1.42.493-1.322 1.062.098.57-.69 1.036-1.75 1.036s-1.963-.241-2.005-.536a82.443 82.443 0 0 0-.416-2.317c-.199-1.042.665-2.44 2.076-3.365 2.838-1.86 3.137-3.36.667-3.338-1.34.011-1.438.213-.417.86 1.074.681 1.026.964-.25 1.454-1.442.553-2.063-.43-1.677-2.654.079-.453-.318-.54-.882-.19-.563.347-1.024.08-1.024-.593s-.261-.965-.58-.646c-.32.319.132 1.667 1.003 2.996.871 1.33 1.244 2.756.83 3.17s-.81 1.167-.878 1.67c-.304 2.226-.458 2.335-1.334.951-.583-.923-.545-1.926.103-2.707.726-.875.541-1.917-.625-3.534-1.163-1.612-1.56-1.793-1.337-.608.175.926-.132 1.601-.682 1.5s-.918-.432-.817-.735c.1-.302-.823-.55-2.052-.55-1.541 0-2.28.638-2.379 2.05-.132 1.899-.066 1.917.883.245.807-1.42 1.327-1.555 2.434-.637.775.643 1.111 1.68.748 2.306-.364.625.316.28 1.51-.768 1.195-1.048 2.173-1.412 2.173-.81 0 .603-.458 1.38-1.017 1.725s-.757 1.047-.44 1.559c.811 1.314-.073 1.167-4.326-.716-2.044-.906-4.222-1.758-4.839-1.893-2.254-.494-6.346-3.704-5.816-4.562.3-.485.05-1.674-.556-2.64-.92-1.468-.988-1.346-.41.734.617 2.22.514 2.344-.941 1.136-.898-.745-1.344-1.824-.99-2.396.383-.62.157-.74-.56-.298-.93.575-.916 1.089.062 2.267.696.838 1.28 3.01 1.299 4.828.018 1.817.325 3.595.68 3.951.357.356.491-.97.3-2.945-.443-4.567 1.195-3.73 1.734.885.221 1.892.046 3.22-.39 2.95-.434-.269-.79.02-.79.642 0 .676-.603.528-1.5-.37-.825-.825-1.5-3.052-1.5-4.949 0-1.897-.675-4.009-1.5-4.694-1.118-.927-1.5-.943-1.5-.063 0 .65-.52.86-1.155.468-.682-.422-.884-.276-.494.355.364.588.118 1.25-.546 1.472-.938.312-.94.568-.006 1.144.66.409 1.2.24 1.2-.376 0-.615.52-.797 1.155-.404.715.442.883.274.441-.441-.392-.635-.31-1.155.184-1.155.493 0 .903 1.688.912 3.75.008 2.063-.174 2.745-.406 1.517-.43-2.289-2.356-2.579-5.285-.796-1.334.812-1.334.704 0-.966 1.363-1.707 1.338-1.818-.274-1.214-1.57.588-1.631.41-.54-1.563.678-1.225 1.099-2.879.935-3.674-.244-1.18-.02-1.215 1.21-.194 1.236 1.026 1.468.976 1.284-.275-.123-.84-.61-1.877-1.08-2.306-.47-.428-.525-.205-.121.496.455.79.231 1.17-.59 1-.728-.151-1.268.477-1.199 1.396.078 1.034-.398 1.47-1.25 1.143-.756-.29-1.375-.687-1.375-.882 0-.995 4.42-4.29 5.151-3.838.467.288.849.048.849-.535s-.52-1.059-1.155-1.059c-.654 0-.368-.87.66-2.006.999-1.103 2.006-1.816 2.238-1.583.65.65 4.796-3.792 4.466-4.783-.16-.48.426-.598 1.302-.262.914.351 1.335.194.987-.369-.663-1.072 4.44-6.65 5.714-6.247.433.138.675-.087.538-.5s.128-.75.59-.75c.463 0 1.497-1.25 2.298-2.78s1.896-2.507 2.434-2.175.853.008.702-.72c-.15-.729.321-1.201 1.05-1.05.728.151 1.062-.15.74-.67-.32-.52.546-1.833 1.926-2.919 1.38-1.085 2.51-2.24 2.51-2.564s-2.714-.307-6.03.04c-5.367.56-6.296.381-8.433-1.627-1.9-1.785-2.525-3.642-2.99-8.895a721.301 721.301 0 0 0-1.047-10.875c-.413-3.82-.19-4.372 2.27-5.624 1.502-.763 5.85-2.162 9.664-3.107 3.814-.946 7.64-1.906 8.5-2.133 6.328-1.67 15.37-3.484 19.565-3.927 2.75-.29 6.05-.759 7.334-1.041 1.721-.379 2.13-.175 1.558.777-.63 1.047-.48 1.05.795.018 1.192-.965 2.262-1.008 4.442-.18 1.579.601 2.988 1.054 3.132 1.006.143-.047 1.343.623 2.666 1.49 3.09 2.025 3.94 4.3 2.34 6.275-.99 1.223-.994 1.4-.017.814 1.534-.921 1.545-.282.187 10.458-.585 4.625-1.823 9.903-2.75 11.73-1.47 2.894-11.335 12.768-35.003 35.036-6.243 5.873-6.697 7.638-1.733 6.738 1.553-.282 2.555 0 2.565.721.009.72.431.595 1.076-.316.943-1.333 1.013-1.333.63 0-.236.825-1.17 1.368-2.076 1.206-.905-.162-1.646.25-1.646.917s.296.914.658.552c.362-.362 1.348-.1 2.192.584 1.224.99 1.382.988.783-.01-1.032-1.718.47-1.566 3.161.32 1.232.862 1.974 1.998 1.649 2.524-.325.526.005.833.733.682.728-.152 1.178.387 1 1.197-.256 1.162.077 1.11 1.58-.25 1.846-1.671 1.907-1.566 2.057 3.528.086 2.887-.18 6.765-.592 8.617-.708 3.185-1.126 3.464-7.734 5.156-3.843.984-11.747 3.389-17.565 5.344-13.067 4.39-17.494 5.065-21.47 3.273zm40.15-27.154c-.115-.786-.489-1.707-.83-2.048-.341-.342-.487.208-.324 1.22s-.208 2.517-.825 3.342c-.96 1.283-.882 1.313.533.207.91-.712 1.561-1.936 1.446-2.721zm-8.98-.106c.126-.86-.05-1.284-.391-.942-.342.34-.724 1.323-.85 2.183-.126.86.05 1.283.39.942.342-.341.725-1.324.85-2.183zm-15.224-3.213c.283-.458-.12-.833-.897-.833s-1.18.375-.897.833c.283.458.687.833.897.833s.614-.375.897-.833zm-4.722-5.825c-.362-.362-.148-1.273.476-2.024.624-.751.845-1.655.491-2.009-.353-.353-.642-.09-.642.583s-.41.972-.912.662c-.502-.31-.761.226-.577 1.191.45 2.352.4 2.255 1.156 2.255.366 0 .37-.296.009-.658zm-7.069-2.867c.119-.807-.104-1.665-.495-1.906-.391-.242-.711.641-.711 1.962 0 2.514.835 2.475 1.206-.056zm10.94-1.808c.024-.642.587-1.054 1.25-.917s1.091-.292.954-.954.312-1.282 1-1.375 1.7-.227 2.25-.296 1-.575 1-1.125-.563-.887-1.25-.75-1.1-.425-.917-1.25c.184-.825-.041-1.125-.5-.667-.458.459-.833 1.246-.833 1.75 0 1.094-1.463 1.248-1.585.167-.047-.412-.471-1.215-.943-1.783-.774-.933.025-3.39 1.236-3.802.267-.09 1.154.39 1.972 1.07 1.188.985 1.487.968 1.487-.087 0-1.682-4.88-1.51-5.447.192-.33.988-.754.985-2.067-.015-.91-.693-1.32-.865-.912-.384.932 1.1-1.152 3.732-2.361 2.985-.492-.304-1.163.148-1.492 1.005-.329.857-.953 1.338-1.388 1.07s-1.06.211-1.388 1.068c-.33.857-1.02 1.297-1.536.978s-1.264-.053-1.662.591c-.423.686-.292.904.318.528.573-.354 1.596.025 2.275.843 1.135 1.367 5.422 1.395 6.773.044.925-.925 3.23 1.617 2.548 2.81-.37.65-.259.78.261.304.501-.459.931-1.359.956-2zm-9.175-1.525c-.494-.353.111-1.628 1.343-2.833 1.603-1.568 2.452-1.853 2.985-1 1.016 1.626 1.268 3.674.463 3.768-.364.042-1.39.218-2.278.392-.889.173-2.02.026-2.513-.327zm3.296-1.598c0-.8-.383-1.22-.85-.93-.467.288-.59.943-.274 1.455.808 1.309 1.124 1.161 1.124-.525zm3.343.968c-1.124-1.354-.745-1.91 1.137-1.664.356.046.393-.89.082-2.078-.525-2.01-.611-2.03-1.224-.283-.4 1.137-.921 1.457-1.321.81-.364-.589-.052-1.577.694-2.196 1.026-.851 1.663-.757 2.612.387.69.832.92 1.512.51 1.512s-.234.615.39 1.367c.858 1.035.798 1.647-.245 2.513-1.056.876-1.674.79-2.635-.368zm10.521-9.95c-.041-2.442-.314-4.678-.606-4.97-.423-.423-.457 8.214-.036 9.158.477 1.073.706-.423.642-4.189zm12.556-7.008c.502.31.913.116.913-.433 0-.548-.869-.931-1.93-.851-1.063.08-1.867.39-1.788.688.078.298-.428 1.667-1.125 3.042-1.178 2.323-1.115 2.305.875-.255 1.178-1.515 2.553-2.501 3.055-2.191zm6.04-8.304c1.245-1.586 1.21-1.621-.377-.377-1.666 1.306-2.195 2.127-1.372 2.127.207 0 .995-.787 1.75-1.75zm4.747-6.902c-.615-.741-1.379-1.348-1.696-1.348-.318 0-.044.534.608 1.186.916.916.79 1.659-.55 3.25-1.732 2.059-1.73 2.06.51.162 1.724-1.46 1.987-2.215 1.128-3.25zm-2.417 1.721c.317-.512.193-1.167-.274-1.456-.467-.289-.85.13-.85.931 0 1.686.316 1.834 1.124.525zm9.622-1.819c1.119-1.478 1.11-1.56-.053-.524-1.088.969-1.71.969-2.952 0-1.388-1.081-1.412-1.02-.202.524.755.963 1.488 1.75 1.628 1.75s.851-.787 1.58-1.75zm-5.828-1.5c-.547-.687-.866-2.04-.71-3.005s-.087-1.525-.54-1.246c-1.328.822.1 5.501 1.68 5.501.31 0 .117-.562-.43-1.25zm4.424-.408c-.361-.362-.219-1.187.318-1.833.667-.803.541-1.175-.396-1.175-.754 0-1.231.712-1.06 1.583.423 2.16.382 2.083 1.13 2.083.366 0 .37-.296.009-.658zm10.854-16.806c.042-2.425-.205-4.236-.547-4.025-.342.212-.553 2.096-.469 4.187.085 2.091-.312 4.477-.881 5.302-.863 1.25-.797 1.287.393.223.802-.716 1.462-3.214 1.504-5.687zm-23.28 1.802c-.687-.277-1.812-.277-2.5 0-.687.277-.125.504 1.25.504s1.938-.227 1.25-.504zm28.311-5.899c.073-1.355-.12-2.212-.429-1.904-.308.309-.62 1.67-.692 3.026-.073 1.356.12 2.213.429 1.904.308-.308.62-1.67.692-3.026zm-4.96-3.874c0-1.34-.32-2.238-.711-1.996-.566.35-.55 2.272.034 4.181.31 1.015.677-.167.677-2.185zm5.007-1.036c-.119-.809-.495-1.75-.837-2.091-.48-.481-.387 1.548.153 3.312.295.965.857-.038.684-1.22zm53.643 98.498c-3.814-1.73-4.25-2.285-4.25-5.402 0-4.025 1.99-13.726 3.075-14.983.406-.471 1.247.092 1.868 1.252 1.522 2.843 9.605 6.696 14.678 6.996 5.088.301 10.388-1.838 16.052-6.478 2.38-1.95 4.327-3.066 4.327-2.48s-.476 1.068-1.059 1.068-.738.52-.345 1.154c.43.697.275.884-.39.473-1.15-.71-5.897 4.94-5.456 6.493.138.484-.226.88-.809.88s-.78.45-.44 1 .066 1-.609 1c-.674 0-.955.27-.626.6.918.917-4.844 6.144-9.255 8.394-4.934 2.518-11.26 2.53-16.76.033zM38.7 106.9c-1.77-1.955-2.305-6.907-1.3-12.033.706-3.606 9.64-22.11 14.117-29.243 3.99-6.357 13.143-16.574 16.96-18.933C75.138 42.575 80 44.641 80 51.59c0 4.528-4.052 13.604-6.956 15.582-5.402 3.679-17.621 21.607-22.025 32.317-3.372 8.199-8.704 11.407-12.318 7.413zm121.64-6.195c-2.836-2.548-2.965-2.892-1.249-3.34 1.052-.276 1.66-.093 1.352.406-.308.499-.121.907.416.907s1.164-.338 1.395-.75.293-.217.14.435c-.155.652.195 1.344.777 1.538s.894 1.093.694 1.998c-.302 1.364-.905 1.16-3.525-1.194zm104.61-6.255c2.49-6.008 5.05-18.32 5.05-24.296 0-10.02-3.842-11.04-11.608-3.086-5.541 5.675-7.468 5.485-4.32-.426 1.014-1.906 1.863-3.041 1.886-2.523.052 1.17 2.966-2.588 3.01-3.883.017-.517-.693-.067-1.578 1-1.496 1.805-1.502 1.766-.08-.558.84-1.375 2.049-2.377 2.684-2.226.635.151.89-.154.565-.678-.842-1.363 5.012-9.682 8.766-12.455 4.787-3.537 6.223-3.75 8.55-1.274 1.877 1.999 2.044 3.13 1.65 11.178-.27 5.48-1.255 11.283-2.54 14.955-1.156 3.3-2.472 7.437-2.925 9.193-.847 3.28-6.696 14.249-9.497 17.808-1.17 1.487-1.072.789.386-2.728zM256 66.32c0-1.27-.462-.703-1.92 2.358-1.122 2.357-1.101 2.389.365.559.855-1.068 1.555-2.38 1.555-2.917zm-64.283 30.74c-.33-.329-.074-1.439.567-2.466.958-1.533.814-2.134-.809-3.36-1.086-.821-1.582-1.507-1.102-1.525.48-.017.342-.67-.306-1.451-.92-1.108-.886-1.377.153-1.225 1.307.192 3.888 2.502 6.7 5.994 1.225 1.523 1.225 1.722 0 1.457-.829-.179-1.28.318-1.086 1.193.183.825 0 1.167-.408.76s-1.274-.3-1.926.24-1.453.713-1.783.384zM195 93.24c0-.724-.787-1.935-1.75-2.69-1.583-1.242-1.62-1.207-.388.365.75.955 1.092 2.441.762 3.302-.346.9-.18 1.305.388.953.543-.336.988-1.204.988-1.93zm6.08-2.313c-.044-.687-.744-1.25-1.555-1.25-1.151 0-1.271-.536-.546-2.443.923-2.428.814-4.232-.487-8.057-.549-1.613-.472-1.71.399-.5.932 1.297 1.08 1.263 1.094-.25.008-.962.481-1.75 1.05-1.75.68 0 .711.607.092 1.765-.652 1.217-.508 2.362.464 3.69.775 1.06 1.41 1.418 1.41.796s-.452-1.411-1.003-1.752c-.656-.405-.597-1.378.169-2.81.644-1.203 1.095-2.301 1.002-2.439-.565-.836-.023-2.277.69-1.836.473.292.737-.593.586-1.966-.168-1.534.75-3.741 2.38-5.722 1.46-1.774 1.85-2.59.866-1.812-1.653 1.306-1.737 1.192-1.108-1.5.375-1.603.7-4.557.722-6.566.036-3.286.277-3.61 2.405-3.224 1.895.344 2.657-.221 3.837-2.847l1.472-3.277-.646 4c-.356 2.2-3.215 11.65-6.355 21-6.823 20.32-6.837 20.357-6.939 18.75zm.905-4.5c-.012-1.756-.217-1.931-.934-.797-.505.798-.697 1.81-.426 2.25.868 1.403 1.376.86 1.36-1.453zm7.698-26.938c-.319-.797-.556-.56-.604.605-.043 1.054.193 1.644.526 1.312.332-.332.367-1.195.078-1.917zM212 55.284c0-.216-.698-.661-1.552-.989-.89-.341-1.29-.173-.94.393.587.95 2.492 1.406 2.492.596zm-19.436 29.1c.376-.986.935-1.541 1.243-1.233.308.308 0 1.114-.683 1.793-.987.98-1.102.865-.56-.56zm55.51-5.207c.005-.55.82-2.521 1.81-4.38 1.4-2.625 1.94-3.019 2.422-1.763.374.973-.346 2.715-1.811 4.38-1.338 1.52-2.427 2.313-2.422 1.763zm-17.034-6.054c-.066-1.745 6.787-25.574 8.9-30.946 2.302-5.852 2.764-3.747.554 2.518-.83 2.35-1.698 5.218-1.932 6.376-2.082 10.303-7.378 25.83-7.522 22.051zm-28.476-2.342c-.304-.493.371-1.955 1.5-3.25l2.055-2.354-1.563 2.58c-.86 1.419-1.262 2.881-.893 3.25.369.368.397.67.063.67-.335 0-.857-.403-1.162-.896zM91.985 60.153c-.695-.838-1.012-1.777-.703-2.085.309-.31 1.064.377 1.678 1.524 1.31 2.447.823 2.727-.975.561zm-2.843-5.644c-.2-2.444.935-4.905 1.968-4.267.493.304.895 1.003.895 1.553s-.417.742-.928.427c-.51-.316-1.125.445-1.364 1.69-.253 1.316-.492 1.566-.571.597zm-1.637-4.832c-.34-.55-.141-1 .441-1s1.06.45 1.06 1-.2 1-.442 1-.719-.45-1.059-1z" fill="#3134e6"/><path d="M214.5 191.965c-1.1-.266-3.012-1.418-4.25-2.559-3.935-3.628-2.755-14.92 5.666-54.226 2.121-9.9 3.737-18.133 3.592-18.295-.146-.162-2.007 1.424-4.137 3.524-10.505 10.363-22.53 9.502-28.248-2.022-2.59-5.222-3.32-15.904-1.823-26.653 1.057-7.585 1.7-7.547 1.7.1 0 8.053 3.692 16.131 9 19.692 3.043 2.041 4.278 2.27 9.455 1.745 6.505-.659 11.039-3.19 16.537-9.232 1.755-1.93 3.336-3.362 3.511-3.183.176.178-.743 5.05-2.04 10.825s-3.548 16.575-5 24c-2.72 13.918-3.08 15.748-3.93 20-1.967 9.847-2.656 19.546-1.588 22.357 1.702 4.475 9.936 6.688 14.466 3.889.579-.358.048.626-1.18 2.187-1.227 1.56-2.231 3.425-2.231 4.145 0 1.633-3.924 4.461-5.973 4.306-.84-.064-2.427-.334-3.527-.6zm-187.76-8.997c-2.68-.926-7.047-3.742-10-6.448-5.116-4.689-5.157-4.77-1.723-3.405 8.769 3.486 23.798 2.854 35.387-1.488 5.554-2.08 14.106-8.605 16.78-12.802 2.329-3.654 6.348-17.9 9.916-35.145 3.137-15.16 4.033-18.316 11.917-42 5.35-16.067 13.526-34.359 14.305-32 1.902 5.76 3.634 15.558 3.067 17.35-.375 1.182-2.416 5.89-4.536 10.46-2.12 4.57-3.855 8.563-3.855 8.874 0 .311-1.757 5.347-3.904 11.191-4.231 11.516-7.127 22.33-12.66 47.283-4.117 18.558-6.652 24.868-12.08 30.068-6.337 6.07-14.922 9.018-27.355 9.391-7.813.235-11.718-.105-15.259-1.328zM14.871 161.93c-1.244-1.586-1.208-1.621.378-.377.962.755 1.75 1.542 1.75 1.75 0 .823-.822.293-2.128-1.373zm28.628-32.24c-2.656-1.321-5.423-4.071-8.234-8.183-4.508-6.595-4.798-8.013-1.108-5.429 3.63 2.543 9.788 2.027 14.896-1.248 4.339-2.783 12.225-10.684 18.636-18.673 3.403-4.241 3.542-3.759 1.306 4.528-.668 2.473-1.406 5.547-1.64 6.832-.235 1.285-1.086 4.868-1.892 7.96S64 121.845 64 122.755c0 2.75-10.255 8.927-14.815 8.925-.927 0-3.485-.896-5.685-1.99zm74.95.63c-1.677-.756-4.253-2.805-5.724-4.553-2.461-2.925-3.428-5.402-5.303-13.587l-.687-3 3.382 3.13c7.228 6.69 10.153 6.84 25.882 1.328 6.325-2.217 15.662-5.077 20.75-6.355l9.25-2.325-.119 4.611c-.246 9.622-.609 10.146-8.381 12.133-3.85.985-11.761 3.39-17.58 5.345-13.066 4.39-17.493 5.066-21.47 3.273zm121.8-4.613c-3.814-1.73-4.25-2.285-4.25-5.402 0-4.025 1.991-13.726 3.075-14.983.407-.471 1.248.092 1.868 1.252 1.522 2.843 9.605 6.696 14.678 6.996 5.089.301 10.388-1.838 16.052-6.478 2.38-1.95 4.327-3.066 4.327-2.48s-.476 1.068-1.059 1.068-.738.52-.345 1.154c.43.697.275.884-.39.473-1.15-.71-5.897 4.94-5.456 6.493.138.484-.226.88-.809.88s-.78.45-.44 1 .066 1-.608 1c-.674 0-.956.27-.626.6.917.917-4.845 6.144-9.255 8.394-4.935 2.518-11.26 2.53-16.761.033zm-201.55-18.804c-1.77-1.955-2.304-6.907-1.3-12.033.706-3.606 9.64-22.11 14.117-29.243 3.99-6.357 13.143-16.574 16.96-18.933 6.66-4.116 11.522-2.05 11.522 4.898 0 4.528-4.052 13.604-6.956 15.582-5.401 3.679-17.62 21.607-22.025 32.317-3.371 8.199-8.703 11.407-12.318 7.413zm89.299-9.056c0-1.218 29.761-30.548 40.601-40.012 4.455-3.89 11.595-10.99 15.865-15.777l7.765-8.704-.589 3.913a373.217 373.217 0 0 0-1.19 8.914c-.33 2.75-1.354 6.494-2.276 8.32-1.46 2.893-11.307 12.754-34.96 35.005-6.056 5.698-6.56 5.954-14 7.107-4.244.658-8.504 1.422-9.466 1.699-.963.277-1.75.067-1.75-.465zm136.95-3.394c2.491-6.008 5.05-18.32 5.05-24.296 0-10.02-3.841-11.04-11.608-3.086-5.54 5.675-7.468 5.485-4.32-.426 1.014-1.906 1.863-3.041 1.886-2.523.052 1.17 2.967-2.588 3.01-3.883.018-.517-.692-.067-1.577 1-1.497 1.805-1.502 1.765-.08-.558.84-1.375 2.048-2.377 2.683-2.226.635.151.89-.154.566-.678-.843-1.363 5.012-9.682 8.765-12.455 4.787-3.537 6.224-3.75 8.55-1.274 1.878 1.999 2.045 3.13 1.65 11.178-.27 5.48-1.255 11.283-2.54 14.955-1.156 3.3-2.471 7.437-2.925 9.193-.846 3.28-6.696 14.249-9.497 17.808-1.17 1.487-1.072.789.387-2.728zm-8.95-28.13c0-1.27-.461-.703-1.92 2.358-1.122 2.357-1.101 2.389.365.559.856-1.068 1.555-2.38 1.555-2.917zM201.09 91.18c-.227-3.387 8.555-32.07 12.505-40.841l1.423-3.16-.646 4c-.356 2.2-3.215 11.65-6.355 21-6.648 19.798-6.838 20.32-6.926 19zm46.983-12c.006-.55.821-2.521 1.812-4.38 1.398-2.625 1.94-3.019 2.421-1.764.374.974-.346 2.716-1.811 4.38-1.337 1.52-2.427 2.314-2.422 1.764zm-16.696-8c3.065-12.746 9.46-32.861 9.584-30.15.021.469-1.265 5.419-2.859 11-1.594 5.583-3.174 11.76-3.512 13.726-.339 1.967-1.308 4.442-2.154 5.5-1.512 1.89-1.53 1.888-1.059-.076zm-99.24-13.855c-1.804-1.92-2.328-3.979-2.832-11.126l-.62-8.77 2.428 1.59c2.073 1.358 3.815 1.45 11.907.626 20.184-2.053 28.492-2.767 28.794-2.474.286.278-2.909 3.107-18.645 16.51-5.522 4.703-7.983 5.685-14.746 5.881-3.085.09-4.613-.454-6.288-2.237zm82.98-11.772c-.064-.895.604-3.352 1.484-5.46 1.558-3.728 1.539-3.88-.724-5.713-2.689-2.177-8.356-1.742-12.478.96-1.354.886-2.642 1.43-2.863 1.21-.423-.424 2.513-15.027 3.184-15.84.214-.26.702.015 1.085.61.382.594 2.126 1.814 3.875 2.71 4.133 2.117 8.717 1.27 13.55-2.502 2.053-1.601 3.553-2.334 3.336-1.63-.218.705-1.387 5.453-2.598 10.552-1.604 6.756-2.817 9.753-4.474 11.057-1.25.983-2.495 2.662-2.767 3.73-.364 1.427-.526 1.511-.61.315z" fill="#0b09a7"/><path d="M214.09 191.815c-1.325-.371-3.297-1.862-4.38-3.315-1.97-2.637-1.97-2.645.248-7.226 1.221-2.522 2.432-4.586 2.69-4.586s.232.385-.058.855c-.29.47.493 1.814 1.74 2.986 2.546 2.391 7.982 3.35 11.496 2.027l2.326-.876-2.076 2.639c-1.142 1.451-2.076 3.227-2.076 3.947 0 1.625-3.913 4.457-5.973 4.322-.84-.054-2.611-.403-3.937-.773zm-187.35-8.84c-2.68-.925-7.047-3.741-10-6.447-5.103-4.677-5.149-4.768-1.741-3.421 8.886 3.51 25.624 2.814 35.653-1.484 9.203-3.945 18.499-12.894 19.927-19.184.093-.413.26-.863.371-1 .262-.325 1.12-3.826 1.414-5.768.126-.835.493-1.96.814-2.5.322-.54.9-2.445 1.282-4.232 1.067-4.975 2.369-3.865 2.102 1.791-.13 2.773.064 5.228.433 5.456.369.228.732-.128.808-.791.075-.664.342-2.497.591-4.074.501-3.163-1.197-7.873-2.539-7.044-.468.29-.39-.687.175-2.17.563-1.483.79-2.93.505-3.215-.285-.286-.023-1.118.584-1.849.607-.73.848-1.995.535-2.81s-.212-1.7.223-1.97c.435-.268 1.6-4.783 2.588-10.031s2.112-9.543 2.498-9.543.768-.563.848-1.25c.08-.688.267-2.28.416-3.538.15-1.258.947-2.714 1.772-3.235.995-.628 1.08-.952.25-.962-1.944-.024-1.471-2.005.5-2.094.962-.044 1.21-.299.551-.567-1.418-.576.313-5.324 2.428-6.654.699-.44 1.264-1.34 1.255-2-.01-.734-.391-.618-.984.3-.534.825-.977 1.027-.985.45s.525-1.59 1.185-2.25.873-1.2.474-1.2-.03-1.346.82-2.99c.85-1.644 1.508-3.107 1.461-3.25-.415-1.276 1.518-3.37 3.23-3.5 1.174-.088 2.488-.732 2.92-1.431.956-1.546.072-2.712-.91-1.202-.816 1.256-4.357 1.443-3.582.19.288-.468.893-.623 1.342-.345.45.278 1.428-.23 2.173-1.128 1.209-1.456 1.085-1.556-1.136-.923-1.78.507-2.084.428-1.063-.276.787-.542 1.528-1.654 1.648-2.471.12-.818.736-2.316 1.368-3.33 1-1.604 1.06-1.52.458.648-.608 2.191-.5 2.333.893 1.177 1.687-1.4 1.256-4.159-.653-4.185-.711-.01-.639-.335.192-.861.734-.466 1.297-1.134 1.25-1.485-.047-.351.14-.638.415-.638h1.333c.458 0 .833.632.833 1.404 0 .816-.607 1.172-1.45.849-1.18-.453-1.244-.172-.344 1.508.607 1.135 1.571 2.295 2.141 2.577s.463.38-.239.217c-2.042-.472-4.607 2.37-4.052 4.49.278 1.063.884 1.698 1.348 1.411.463-.286.551-1.279.196-2.206-.572-1.488-.465-1.514.917-.223 1.415 1.321 1.384 1.588-.326 2.785-1.04.729-1.632 1.744-1.315 2.256s.047.932-.598.932c-.774 0-.614.856.47 2.51.904 1.38 1.294 2.452.865 2.381-2.016-.332-3.338.205-2.77 1.125.346.56 1.093.73 1.66.38.566-.35.455.43-.247 1.733-.703 1.304-1.414 3.496-1.58 4.87-.555 4.58-.67 4.916-1.51 4.398-.458-.283-.867-.151-.909.294s-.224 1.484-.405 2.309c-.18.825-.563 2.718-.85 4.207s-1.864 6.665-3.505 11.5c-1.641 4.836-3.237 10.142-3.546 11.792-.31 1.65-1.898 8.85-3.53 16s-3.729 16.375-4.661 20.5c-3.527 15.604-8.897 22.861-20.443 27.626-8.352 3.447-24.647 4.287-32.242 1.662zm54.009-52.805c0-1.385-.317-2.714-.704-2.954s-.594.557-.459 1.769l.33 2.953c.204 1.839.833.504.833-1.768zm11.72-33.53c-.265-.43.083-.999.774-1.264.69-.266.249-.434-.982-.374-1.453.071-1.896.452-1.264 1.084.633.633.365 1.699-.762 3.039-1.73 2.055-1.727 2.055.49.18 1.225-1.036 2.01-2.236 1.744-2.665zm-.72-4.156c-.138-.663.425-1.226 1.25-1.252.972-.031 1.48-1.015 1.444-2.796-.037-1.811.475-2.775 1.5-2.827.944-.048 1.086-.27.362-.564-.657-.267-.931-1.17-.61-2.005.476-1.243.756-1.276 1.537-.186.696.972.79.824.344-.543-.336-1.032-.07-2.529.591-3.326.95-1.143.9-1.648-.232-2.392-1.206-.792-1.125-1.18.505-2.424 1.72-1.312 1.745-1.48.225-1.48-2.063 0-3.967 4.477-3.084 7.256.419 1.322.26 1.763-.475 1.31-1.967-1.217-1.177-5.588 1.493-8.258 1.618-1.618 1.965-2.356.918-1.954-.925.355-2.095.645-2.6.645-.505 0-.844.338-.754.75.09.413-.154 1.875-.544 3.25s-.828 3.644-.976 5.042-.665 3.199-1.149 4c-.754 1.251-.639 1.263.813.086 1.956-1.587 2.298-.18.442 1.819-1.01 1.087-.985 1.195.13.56.945-.538 1.22-.348.875.604-.278.764-1.045 1.265-1.704 1.114-.66-.15-.934.156-.61.681.326.526.127 1.243-.441 1.594s-.774 1.057-.457 1.57c.811 1.313 1.504 1.156 1.207-.274zm1.917-9.462c-.367-.367-.667-1.132-.667-1.7 0-.627.466-.568 1.183.15.651.65.951 1.415.667 1.7-.284.284-.817.216-1.183-.15zm2.666-4.79c0-.8.383-1.22.85-.93.467.288.59.943.274 1.455-.808 1.309-1.124 1.161-1.124-.525zm118.75 59.873c.048-1.165.285-1.402.604-.604.29.722.254 1.584-.079 1.917-.332.332-.568-.259-.525-1.313zm1-4c.048-1.165.285-1.402.604-.604.29.722.254 1.584-.079 1.917-.332.332-.568-.259-.525-1.313zm-172.58-4.407c-2.655-1.321-5.423-4.071-8.233-8.183-4.509-6.595-4.798-8.013-1.109-5.428 2.933 2.054 9.071 2.052 13.05-.005 3.978-2.058 11.75-9.288 17.941-16.695 2.668-3.191 4.85-5.122 4.85-4.29s-1.098 5.917-2.44 11.302c-1.343 5.384-2.75 11.513-3.126 13.619-.79 4.418-3.286 7.146-8.933 9.77-5.11 2.372-7.079 2.358-12-.09zm74.95.584c-1.677-.73-4.253-2.758-5.723-4.506-2.452-2.914-3.249-4.94-5.342-13.585l-.726-2.998 3.334 3.335c6.595 6.594 10.91 6.697 28.447.678 7.183-2.465 13.96-4.616 15.06-4.779s2.563-.648 3.25-1.077c.688-.429 1.25-.548 1.25-.265 0 .283 1.725-.094 3.834-.838 3.222-1.137 3.833-1.137 3.833 0 0 .744-.487 1.062-1.083.705-.596-.356-.47.11.281 1.035 1.497 1.845.9 9.024-.972 11.701-.825 1.18-.953.965-.6-1 .248-1.375.764-3.4 1.148-4.5.445-1.274.156-1.093-.794.5-1.435 2.404-1.48 2.298-1.186-2.776.236-4.074.027-5.044-.92-4.258-.673.56-1.558.683-1.966.275-.408-.407-.591-.29-.408.26s-.117 1-.667 1-.876-.372-.725-.825c.151-.454-.225-.515-.837-.137-.77.476-.792 1.007-.072 1.727.7.7.715 1.65.045 2.902-.732 1.367-.665 1.79.251 1.596.686-.145 1.307.186 1.38.736s.485 1.807.918 2.793c.866 1.972.259 2.984-1.987 3.314-1.117.164-1.346-.543-.953-2.946.38-2.325.25-2.764-.487-1.66-.978 1.464-1.152 1.31-1.408-1.25-.068-.688-.575-1.258-1.125-1.266-.55-.008-1.632-.416-2.404-.905-.934-.591-1.18-.526-.734.196.37.597.214 1.369-.345 1.714s-1.017.077-1.017-.598c0-1.544-1.08-.533-1.353 1.266-.111.738-.597 2.017-1.08 2.842s.455.264 2.081-1.248c2.278-2.116 3.229-2.475 4.141-1.563s.785 1.658-.552 3.247c-1.719 2.043-1.715 2.046.414.249 1.183-.998 2.406-1.402 2.718-.897.825 1.334-1.542 4.17-3.869 4.637-1.1.22-5.813 1.816-10.475 3.546-4.66 1.73-9.274 2.936-10.25 2.68-.978-.255-1.559-.111-1.292.32.267.432-.914 1.065-2.623 1.407-4.152.83-4.85.766-8.409-.785zm8.007-2.524c.317-.512.193-1.168-.274-1.456-.468-.29-.85.13-.85.93 0 1.687.315 1.834 1.124.526zm-.955-3.31c.45.407.481.156.07-.558-.578-1-1.074-1.03-2.161-.128-.776.645-1.411 1.396-1.411 1.671s.604 0 1.342-.613c.738-.613 1.71-.78 2.16-.373zm25.625-6.51c1.244-1.586 1.209-1.62-.377-.377-1.666 1.306-2.196 2.128-1.373 2.128.208 0 .995-.788 1.75-1.75zm4.169-7.353c-.76-.76-1.293-.711-1.838.17-.495.801-.357.989.387.529.635-.392 1.155-.162 1.155.512s.307.918.683.543c.376-.376.202-1.165-.387-1.754zm61.805 20.104c-.039-.825.564-4.197 1.339-7.492.775-3.296 1.272-6.128 1.106-6.295-.167-.167-2.046 1.415-4.175 3.515-7.273 7.174-15.753 9.165-22.228 5.218-1.847-1.126-3.587-2.924-3.867-3.997-.28-1.072-.907-1.95-1.393-1.95s-.788-.337-.671-.75-.378-1.816-1.1-3.12c-.779-1.407-.865-2.095-.212-1.691.605.374 1.1.148 1.1-.502 0-.871.35-.89 1.333-.075 1.006.835 1.333.753 1.333-.333 0-.792-.343-1.229-.761-.97-.419.259-1.051-.443-1.406-1.558s-1.056-1.775-1.56-1.463c-.504.311-.651-.125-.327-.971.492-1.281.916-1.165 2.548.698l1.958 2.235-1.64-2.697c-.902-1.483-1.603-2.946-1.559-3.25.044-.304.046-.665.004-.803-.676-2.21-.52-3.87.416-4.406.638-.365.839-.308.446.127-.393.436-.09 1.685.674 2.776.764 1.09 1.168 2.56.897 3.267-.271.706.057 1.624.73 2.04.833.515.965.339.413-.554s-.42-1.068.414-.553c.673.416.972 1.409.666 2.206-.306.798-.139 1.193.372.877.51-.315 2.418.335 4.238 1.445 3.93 2.396 10.41 2.638 15.353.572 1.914-.8 6.01-3.837 9.103-6.75 4.603-4.335 5.48-4.843 4.835-2.797a103.026 103.026 0 0 0-1.517 5.5c-.932 3.836-4.941 18.23-5.99 21.5-.44 1.375-.833 1.825-.872 1zm-27.371-12.931c-.08-1.062-.502-1.71-.938-1.441-.436.27-.793-.062-.793-.736 0-.674-.256-.97-.569-.657-.463.464 1.566 4.764 2.248 4.764.108 0 .132-.868.052-1.93zm50.379 7.894l-4.391-1.992.625-5.736c.344-3.155 1.123-7.492 1.73-9.64l1.106-3.904 2.16 2.582c3.307 3.952 9.472 6.726 14.945 6.726 5.413 0 9.258-1.663 15.465-6.691 2.338-1.893 4.25-2.962 4.25-2.376s-.476 1.067-1.059 1.067-.738.52-.345 1.155c.43.696.275.884-.39.472-1.15-.71-5.897 4.941-5.456 6.494.138.483-.226.88-.809.88s-.78.45-.44 1 .066 1-.608 1c-.675 0-.956.269-.627.599.918.918-4.844 6.145-9.255 8.395-4.973 2.537-11.268 2.525-16.902-.031zm-79.464-7.214c-.324-1.237-.64-2.475-.702-2.75s-.6-1.087-1.196-1.804c-.804-.97-.584-1.803.856-3.244 1.92-1.918 1.94-1.876 2.053 4.055.122 6.463-.092 7.258-1.011 3.743zm24.355-6.75c0-.55.45-1 1-1s1 .45 1 1-.45 1-1 1-1-.45-1-1zm-145.64-7.157c-3.287-6.138-2.717-9.072 4.73-24.343 4.623-9.477 6.752-13.369 7.936-14.5.287-.275 1.24-1.631 2.119-3.014 3.031-4.778 10.738-13.22 14.239-15.598 8.27-5.62 13.88-.42 10.477 9.713-.628 1.87-1.721 4.074-2.43 4.9-.707.824-1.363 1.95-1.458 2.5a.895.895 0 0 1-1.145.725c-.536-.152-.708.155-.383.681s-.208 1.55-1.184 2.275c-5.129 3.81-16.267 20.26-20.867 30.818-2.736 6.28-4.76 8.902-6.927 8.968-1.319.04-4.75-5.699-4.067-6.803.283-.458-.141-.832-.942-.832-1.902 0-1.85.305.653 3.82 1.16 1.63 1.868 3.203 1.574 3.497-.295.295-1.341-.969-2.326-2.807zm91.643-7.902c0-.582.45-.78 1-.44s1 .816 1 1.058-.45.441-1 .441-1-.476-1-1.059zm2.206-1.192c-.816-.983-.375-1.304 1.92-1.398 1.637-.067 2.842-.046 2.676.047s-1.03.722-1.92 1.398c-1.284.976-1.835.966-2.676-.047zm.794-3.126c0-.208.787-.995 1.75-1.75 1.586-1.244 1.621-1.209.377.377-1.306 1.666-2.127 2.196-2.127 1.373zm10.175-3.131c.304-.305 1.575-.751 2.824-.992s1.973-.14 1.61.224-1.635.81-2.825.991c-1.19.182-1.914.081-1.61-.223zm57.89-1.193c-.175-3.213 11.748-40.819 12.654-39.913.73.73-1.864 9.914-7.128 25.226-3.004 8.739-5.49 15.348-5.527 14.687zm-61.065-2.612c0-.172 1.462-1.634 3.25-3.25l3.25-2.937-2.937 3.25c-2.738 3.03-3.563 3.71-3.563 2.937zm7-5.552c0-1.739 4.19-6.134 5.234-5.49.609.376.787.198.41-.41-.83-1.344 4.216-5.44 5.628-4.566.587.362.738.157.348-.474-.65-1.051 2.898-4.896 14.825-16.064 4.156-3.892 3.538-2.527-1.202 2.652-2.27 2.482-3.207 4.965-3.726 9.875-.505 4.782-.492 4.808 1.018 2.092 2.393-4.304 2.563-3.226.299 1.893-2.066 4.67-6.894 9.848-7.83 8.399-.727-1.124-6.003-.653-6.816.608-.379.587-1.474.946-2.434.798s-2 .14-2.31.641c-.715 1.159-3.444 1.195-3.444.046zm7.683-4.322c-.32-.798-.556-.56-.604.604-.044 1.054.193 1.645.525 1.313.332-.333.368-1.195.079-1.917zm92.919 2.937c.336-.962 1.04-1.75 1.563-1.75.524 0 .676-.446.34-.992-.338-.545-.207-1.72.291-2.61.826-1.474.96-1.476 1.518-.02.366.953-.38 2.708-1.856 4.359-1.494 1.674-2.227 2.073-1.856 1.013zm20.476-.333c.048-1.165.285-1.402.604-.604.289.722.253 1.584-.079 1.917-.332.332-.569-.259-.525-1.313zm1.094-7.125c-.12-10.804-3.843-12.032-11.794-3.888-2.902 2.973-5.456 4.885-5.676 4.25-.605-1.749 2.483-7.657 3.632-6.947.596.369.75-.043.379-1.01-.345-.898-.127-1.942.484-2.32.72-.444.826-.225.302.623-.542.877-.419 1.068.372.58.65-.402 1.057-1.484.905-2.405s.21-1.587.806-1.48c.596.107 1.084-.346 1.084-1.006 0-4.32 9.983-14.69 14.143-14.69 2.339 0 4.686 3.39 3.582 5.176-.43.695-.254.858.454.42 1.639-1.013 1.43.568-.427 3.218-.87 1.242-2.637 6.18-3.927 10.973-3.639 13.526-4.25 14.728-4.318 8.506zm-14.173-4.65c0-1.27-.462-.703-1.92 2.358-1.122 2.358-1.102 2.39.365.56.855-1.068 1.555-2.38 1.555-2.918zm-154.46 5.427c-.317-.512-.193-1.167.274-1.456.468-.288.85.13.85.931 0 1.687-.315 1.834-1.124.525zm72.022-2.362c.375-.986.935-1.541 1.243-1.233.307.308 0 1.115-.683 1.793-.988.98-1.103.865-.56-.56zm1.44-2.976c-.006-1.053 4.964-10.166 8.822-16.177 3.056-4.761 4.346-5.612 2.074-1.367-.8 1.494-.8 1.87 0 1.375 1.782-1.102 1.306.243-2.486 7.026-4.54 8.117-5.61 8.436-1.324.394 1.764-3.31 2.988-6.237 2.72-6.505-.268-.268-1.767 1.878-3.332 4.768-3.99 7.37-6.47 11.388-6.475 10.486zm-1.97-3.326c-.03-.923 12.626-20.827 15.198-23.904.46-.55 1.526-1.9 2.37-3 1.492-1.946 1.52-1.932 1.042.5-.27 1.375-.808 5.573-1.193 9.329-.444 4.329-1.202 7.022-2.07 7.355-.753.289-1.19.816-.97 1.17.219.356-.719 1.996-2.084 3.646l-2.483 3 2.247-4.5c1.329-2.66 2.324-6.643 2.434-9.741l.186-5.24-4.105 5.895c-2.259 3.242-5.554 8.3-7.322 11.24-1.77 2.94-3.232 4.853-3.25 4.25zM129.08 45.105c.048-1.165.285-1.402.604-.605.29.722.254 1.585-.078 1.917-.333.332-.569-.258-.526-1.312zm86 0c.048-1.165.285-1.402.604-.605.29.722.254 1.585-.078 1.917-.333.332-.569-.258-.526-1.312zm1.946-4.982c1.306-3.435 1.256-3.824-.775-6.032-1.797-1.954-5.78-2.492-8-1.08-.687.437-1.284.656-1.326.486-.638-2.575-.47-3.476.645-3.476.739 0 1.167.285.952.633-.215.349.63.634 1.877.634s2.27-.512 2.27-1.137-1.163-1.055-2.584-.956c-2.998.209-5.35-1.268-4.418-2.775.383-.62.156-.74-.56-.298-.81.502-.88 1.133-.211 1.938 1.123 1.354.278 2.985-1.772 3.42-1.002.213-1.19-.332-.687-2 .38-1.26.83-3.192 1-4.292s.382-2.45.47-3c.089-.55.934-.082 1.878 1.04 3.056 3.632 11.62 2.8 16.652-1.617 2.566-2.253 3.295-2.546 2.995-1.201-3.613 16.198-5.95 22.278-8.56 22.278-.452 0-.382-1.154.155-2.565z" fill="#0d0995"/><path d="M221 190.805c0-.618.477-1.123 1.059-1.123s.86-.337.617-.75c-.824-1.4 1.2-5.113 3.44-6.312l2.23-1.193-2.173 2.762c-1.195 1.52-2.173 3.322-2.173 4.006 0 .683-.675 1.803-1.5 2.487-1.036.86-1.5.898-1.5.123zM14.92 174.933l-2.424-2.75 2.75 2.424c1.512 1.333 2.75 2.57 2.75 2.75 0 .784-.81.146-3.076-2.424zM217.07 129.1c.048-1.165.285-1.402.604-.605.289.722.254 1.585-.079 1.917-.332.332-.568-.258-.525-1.312zm1-4c.048-1.165.285-1.402.604-.605.289.722.254 1.585-.079 1.917-.332.332-.568-.258-.525-1.312zm42.527-2.374c1.509-2.863 3.864-5.042 5.366-4.964 1.249.064 1.269.181.11.64-.78.307-2.503 1.734-3.83 3.17-1.328 1.436-2.068 1.955-1.646 1.154zm-41.165-2.675c.254-1.723.174-3.42-.177-3.77-1.219-1.219-.97-4.7.3-4.211 1.183.453 2.854-3.302 1.896-4.26-.253-.253-.46.065-.46.706 0 .642-.376 1.167-.834 1.167-.458 0-.833-.65-.833-1.445 0-.794.262-1.416.583-1.381 2.114.228 3.083-.418 3.083-2.052 0-1.032.611-2.384 1.358-3.004.909-.754.41 2.26-1.511 9.128-3.178 11.36-4.098 13.825-3.405 9.122zm45.558-4.427c0-.583-.562-.735-1.25-.34-.726.418-.9.338-.417-.19.459-.501 1.246-.911 1.75-.911.505 0 .93-.325.944-.721.045-1.164 9.407-9.684 9.965-9.067.28.309-.057.763-.748 1.01s-.96.93-.596 1.518.205.787-.353.442c-1.292-.799-6.577 5.053-5.759 6.377.337.544.242.926-.212.847-2.021-.351-2.697.207-1.324 1.094 1.282.828 1.246.971-.25.984-.962.008-1.75-.46-1.75-1.043zm-62.899-27.441c-.198-2.053 4.892-19.374 8.815-30 5.412-14.657 4.136-6.84-1.632 10-2.449 7.15-5.045 14.8-5.77 17-.724 2.2-1.36 3.55-1.413 3zm46.899-10.441c0-.583.477-1.06 1.059-1.06s.78-.45.441-1-.156-1 .41-1 .774-.787.464-1.75c-.457-1.42-.37-1.477.462-.303.653.921.685 2.08.089 3.194-1.167 2.18-2.925 3.333-2.925 1.919zm3.72-6.303c-.56-1.565.958-4.687 3.438-7.066 1.037-.995 1.582-2.302 1.21-2.904-.406-.657-.215-.81.478-.382.688.426 1.154.069 1.154-.886 0-2.269 4.12-7.562 5.314-6.824.59.365.677.1.212-.651-.456-.739-.208-1.622.596-2.118.758-.469 1.378-1.393 1.378-2.055 0-.662.575-1.395 1.278-1.63 1.597-.532-1.55 6.617-3.778 8.584-.825.728-.943 1.043-.261.698.815-.412 1.035-.096.643.926-.328.854-.984 1.552-1.458 1.552s-.602.675-.286 1.5c.317.825.078 1.5-.531 1.5s-.995.376-.857.835c.429 1.43-8.04 10.289-8.53 8.922zm3.28-5.114c0-1.27-.462-.703-1.92 2.358-1.122 2.357-1.101 2.389.365.559.855-1.068 1.555-2.38 1.555-2.917zm-33.921-35.226c.048-1.165.285-1.402.604-.604.289.722.254 1.584-.079 1.917-.332.332-.568-.259-.525-1.313zm1.485-8.123c-.542-1.426-.428-1.54.56-.56.684.678.99 1.485.683 1.793-.308.308-.867-.247-1.243-1.233z" fill="#1c146e"/></svg>