<svg width="1399" height="1225" viewBox="0 0 1399 1225" fill="none" xmlns="http://www.w3.org/2000/svg"><path fill="url(#a)" d="M0 0h1399v1225H0z"/><path d="M433.187 882.977l112.234-116.689-105.632-151.917-6.602 268.606zm389.518-739.766L536.618 427.229l457.739 325.85-171.652-609.868z" fill="#C1B8DD"/><path d="M287.436 921.266a3.44 3.44 0 0 1 3.164 2.207c.163.427.24.881.225 1.338v22.898a2.926 2.926 0 0 1-.968 2.311 1.98 1.98 0 0 1-2.201.375 59.34 59.34 0 0 0-5.589-.727 70.637 70.637 0 0 0-5.854-.242 56.07 56.07 0 0 0-22.403 4.403 58.018 58.018 0 0 0-30.809 30.934 57.788 57.788 0 0 0-3.498 33.627 57.81 57.81 0 0 0 15.909 29.83 61.127 61.127 0 0 0 18.376 12.41 54.836 54.836 0 0 0 22.403 4.63c3.845-.03 7.678-.43 11.443-1.21 2.113-.33 3.169.57 3.169 2.68v22.9c-.03.9-.372 1.77-.968 2.44a3.867 3.867 0 0 1-2.443 1.46l-5.48.48c-1.863.16-3.77.24-5.721.24a84.655 84.655 0 0 1-33.803-6.51 86.367 86.367 0 0 1-27.508-18.63 88.813 88.813 0 0 1-18.508-27.65 87.496 87.496 0 0 1 0-67.728 88.884 88.884 0 0 1 18.508-27.653 86.312 86.312 0 0 1 27.508-18.626 84.6 84.6 0 0 1 33.847-6.825c3.743-.03 7.485.183 11.201.638zm96.411-.751a84.63 84.63 0 0 1 33.846 6.826 87.21 87.21 0 0 1 46.214 46.235 87.483 87.483 0 0 1 0 67.724 87.24 87.24 0 0 1-46.214 46.24 87.421 87.421 0 0 1-33.846 6.82 87.421 87.421 0 0 1-33.846-6.82 87.237 87.237 0 0 1-46.214-46.24 87.483 87.483 0 0 1 0-67.724 87.184 87.184 0 0 1 46.214-46.235 84.61 84.61 0 0 1 33.846-6.826zm0 28.997a57.194 57.194 0 0 0-40.801 16.931 60.708 60.708 0 0 0-12.411 18.516 57.263 57.263 0 0 0 0 45.071 58.35 58.35 0 0 0 30.809 30.82 57.186 57.186 0 0 0 22.524 4.62c7.743 0 15.406-1.57 22.524-4.62a58.34 58.34 0 0 0 30.809-30.82 57.28 57.28 0 0 0 0-45.071 60.838 60.838 0 0 0-12.412-18.516 57.209 57.209 0 0 0-40.91-16.931h-.132zm111.046-28.996h54.532a56.953 56.953 0 0 1 22.513 4.404 57.71 57.71 0 0 1 30.919 30.933 57.774 57.774 0 0 1-12.433 63.627 60.634 60.634 0 0 1-18.508 12.42 55.531 55.531 0 0 1-22.513 4.62H520.42v54.52a3.454 3.454 0 0 1-.968 2.31c-.263.33-.596.61-.977.8-.38.19-.798.29-1.224.3h-22.358c-.464.01-.923-.09-1.346-.28a3.145 3.145 0 0 1-1.097-.82 3.44 3.44 0 0 1-.968-2.31V923.709c-.015-2.114 1.122-3.178 3.411-3.193zm54.532 28.997H520.42v57.967h28.983c3.891.04 7.745-.75 11.312-2.31a29.802 29.802 0 0 0 9.132-6.208 29.492 29.492 0 0 0 6.206-9.247 28.623 28.623 0 0 0 0-22.523 29.52 29.52 0 0 0-15.404-15.412 27.71 27.71 0 0 0-11.246-2.267h.022zm159.22-25.826a4.401 4.401 0 0 1 1.826-2.069 4.783 4.783 0 0 1 2.553-.859h24.824c2.112 0 2.765.976 1.958 2.928l-44.805 107.183v60.41c.062.43.024.87-.113 1.28a2.813 2.813 0 0 1-1.773 1.78c-.413.13-.853.17-1.283.11h-22.403c-2.274 0-3.411-1.06-3.411-3.17v-60.41l-44.806-107.183c-.807-1.952-.161-2.928 1.937-2.928h24.845a4.577 4.577 0 0 1 4.622 2.928l27.992 71.379 28.037-71.379zm93.241-3.169a42.317 42.317 0 0 1 16.924 3.412 45.27 45.27 0 0 1 13.886 9.247 42.822 42.822 0 0 1 9.375 13.761 42.384 42.384 0 0 1 3.411 16.931 40.84 40.84 0 0 1-4.864 19.815 54.862 54.862 0 0 1 13.754 8.807 61.84 61.84 0 0 1 10.718 12.309 56.696 56.696 0 0 1 6.932 14.86 57.76 57.76 0 0 1 2.442 16.8 55.69 55.69 0 0 1-4.621 22.52 58.362 58.362 0 0 1-30.809 30.83 55.698 55.698 0 0 1-22.513 4.62h-54.819a2.884 2.884 0 0 1-1.223-.3c-.381-.2-.715-.47-.978-.8a3.44 3.44 0 0 1-.968-2.31V923.688a2.796 2.796 0 0 1 3.169-3.17h40.184zm-14.304 57.97h14.37a14.53 14.53 0 0 0 10.352-4.262 14.559 14.559 0 0 0 4.261-10.357 13.728 13.728 0 0 0-4.269-10.238 14.338 14.338 0 0 0-4.753-3.117 14.342 14.342 0 0 0-5.591-1.022h-14.37v28.996zm28.983 86.962a27.68 27.68 0 0 0 11.201-2.31 28.814 28.814 0 0 0 15.405-15.41 28.643 28.643 0 0 0 0-22.52 29.974 29.974 0 0 0-6.206-9.14 29.588 29.588 0 0 0-9.243-6.21 28.021 28.021 0 0 0-11.201-2.31h-28.939v57.97l28.983-.07zm84.417 28.89c-2.274 0-3.411-1.06-3.411-3.17V923.84c0-2.113 1.137-3.17 3.411-3.17h22.161c2.274 0 3.411 1.057 3.411 3.17v167.33c0 2.11-1.137 3.17-3.411 3.17h-22.161zm55.743-173.826h54.535c7.6-.038 15.13 1.44 22.16 4.347a57.223 57.223 0 0 1 18.75 12.584 60.824 60.824 0 0 1 12.41 18.517 57.337 57.337 0 0 1 4.5 26.565 57.332 57.332 0 0 1-8.15 25.683 60.16 60.16 0 0 1-21.44 20.94l28.24 62.11c.16.34.24.72.24 1.1 0 .38-.08.75-.24 1.1-.19.33-.48.6-.83.77-.34.18-.73.24-1.11.2h-25.13a5.24 5.24 0 0 1-2.93-.97 4.906 4.906 0 0 1-1.93-2.2l-24.85-54.8h-28.653v54.58a3.44 3.44 0 0 1-.968 2.31c-.3.35-.675.63-1.098.82a3.12 3.12 0 0 1-1.345.28h-22.161c-.463.01-.922-.09-1.345-.28a3.145 3.145 0 0 1-1.097-.82 3.44 3.44 0 0 1-.969-2.31V923.707c0-2.114 1.137-3.178 3.411-3.193zm54.535 28.997h-28.963v57.969h28.983c3.89.03 7.75-.75 11.31-2.31a29.201 29.201 0 0 0 15.41-15.413c1.52-3.559 2.3-7.39 2.3-11.261 0-3.871-.78-7.703-2.3-11.262a29.562 29.562 0 0 0-15.41-15.412 27.724 27.724 0 0 0-11.31-2.311h-.02zm111.26-28.994a84.62 84.62 0 0 1 33.85 6.825 87.17 87.17 0 0 1 46.21 46.235 87.479 87.479 0 0 1 0 67.723 87.189 87.189 0 0 1-46.21 46.24 84.682 84.682 0 0 1-33.85 6.8h-25.55c-.46.01-.92-.08-1.34-.28-.42-.19-.8-.47-1.1-.82-.6-.62-.95-1.45-.97-2.31V923.929c-.06-.463-.02-.936.13-1.38.14-.444.39-.848.73-1.179.33-.331.73-.581 1.17-.729.45-.148.92-.191 1.38-.124h25.55zm0 144.933a55.54 55.54 0 0 0 22.52-4.62 60.61 60.61 0 0 0 18.5-12.42 58.102 58.102 0 0 0 15.84-29.84 58.173 58.173 0 0 0-3.42-33.61 57.76 57.76 0 0 0-30.92-30.934 56.993 56.993 0 0 0-22.52-4.403v115.827z" fill="#fff"/><path d="M344.127 749.424l133.625-40.379 203.627 25.451-337.252 14.928z" fill="#000"/><path d="M475.638 709.044l139.984-67.878 65.756 93.33-205.74-25.452z" fill="#5B5B5B"/><path d="M615.623 641.231l197.268-33.95-131.512 127.302-65.756-93.352z" fill="#7A7A7A"/><path d="M518.045 573.354l97.578 67.878-42.253 20.497-55.325-88.375z" fill="#000"/><path d="M615.623 641.232l197.268-33.95-133.625-12.725-63.643 46.675z" fill="#3A3A3A"/><path d="M675.019 547.902l4.247 46.676 133.624 12.726-137.871-59.402z" fill="#2B2B2B"/><path d="M789.541 554.265l-114.435-6.363 137.872 59.446-23.437-53.083z" fill="#4F4F4F"/><path d="M698.345 507.59l91.196 46.676-114.435-6.363 23.239-40.313z" fill="#3A3A3A"/><path d="M812.891 501.227l-114.435 6.362 91.196 46.676 23.239-53.038z" fill="#2F2F2F"/><path d="M689.851 348.496l123.017 152.731-114.435 6.363-8.582-159.094z" fill="#7A7A7A"/><path d="M751.382 340.02l61.619 161.229-123.018-152.731 61.399-8.498z" fill="#585858"/><path d="M549.911 130l201.493 210.019-61.618 8.477L549.911 130zm239.63 424.265l59.418-36.064 50.858 19.111-86.971 70.014-23.305-53.061z" fill="#000"/><path d="M812.891 607.304l40.294 23.338 46.632-93.33-86.926 69.992z" fill="#949494"/><path d="M853.185 630.641L681.379 734.582l131.512-127.279 40.294 23.338z" fill="#595959"/><path d="M681.379 734.584L745 730.335l108.185-99.692-171.806 103.941z" fill="#2B2B2B"/><path d="M422.603 507.59l256.663 86.967-63.621 46.675L422.603 507.59z" fill="#616161"/><path d="M675.018 547.902h-134.79l139.038 46.654-4.248-46.654z" fill="#3A3A3A"/><path d="M339.878 393.037l114.039 125.166 86.684 29.679-200.723-154.845z" fill="#000"/><path d="M301.697 463.049l152.727 55.152 63.621 55.152-216.348-110.304z" fill="#000"/><defs><linearGradient id="a" y1="612.117" x2="1399" y2="612.117" gradientUnits="userSpaceOnUse"/></defs></svg>