<svg data-name="Layer 1" viewBox="0 0 64 64" fill="#fff" xmlns="http://www.w3.org/2000/svg"><path d="M26 22.414L24.414 24h3.172L26 22.414zm12 0L36.414 24h3.172L38 22.414zM25 55H5v2h21a1 1 0 0 0 1-1V31h-2zm12 1a1 1 0 0 0 1 1h21v-2H39V31h-2z"/><path d="M57.707 39.293A1 1 0 0 0 56 40v3H43V33h7a12 12 0 0 0 .073-24 11.482 11.482 0 0 0-20.386-1.477A11.5 11.5 0 0 0 11 16.5V19H9a7 7 0 0 0 0 14h12v10H8v-3a1 1 0 0 0-1.707-.707l-4 4a1 1 0 0 0 0 1.414l4 4A1 1 0 0 0 8 48v-3h14a1 1 0 0 0 1-1V32a1 1 0 0 0-1-1h3v-5h-3a1 1 0 0 1-.707-1.707l4-4a1 1 0 0 1 1.414 0l4 4A1 1 0 0 1 30 26h-3v5h10v-5h-3a1 1 0 0 1-.707-1.707l4-4a1 1 0 0 1 1.414 0l4 4A1 1 0 0 1 42 26h-3v5h3a1 1 0 0 0-1 1v12a1 1 0 0 0 1 1h14v3a1 1 0 0 0 1.707.707l4-4a1 1 0 0 0 0-1.414zM56 24h-2v-2h2zm-6-10a6.006 6.006 0 0 1 6 6h-2a4 4 0 0 0-4-4zM6 45.586L4.414 44 6 42.414zm52 0v-3.172L59.586 44z"/></svg>