<svg height="512" viewBox="0 0 512 512" width="512" xmlns="http://www.w3.org/2000/svg"><path d="M117.267 314.044c0 18.738-15.308 34.047-34.046 34.047-18.736 0-34.044-15.309-34.044-34.047 0-18.736 15.308-34.044 34.044-34.044h34.046v34.044z" fill="#e01e5a"/><path d="M83.221 358.091c-24.286 0-44.044-19.76-44.044-44.047 0-24.286 19.758-44.044 44.044-44.044h34.046c5.523 0 10 4.478 10 10v34.044c0 24.287-19.759 44.047-44.046 44.047zm0-68.091c-13.258 0-24.044 10.786-24.044 24.044 0 13.26 10.786 24.047 24.044 24.047 13.259 0 24.046-10.787 24.046-24.047V290H83.221z"/><path d="M148.561 314.043c0-25.436 20.783-46.217 46.22-46.217 25.437 0 46.22 20.781 46.22 46.217V429.78c0 25.436-20.783 46.219-46.22 46.219-25.438 0-46.22-20.783-46.22-46.219V314.043z" fill="#e01e5a"/><path d="M194.781 485.999c-31 0-56.22-25.22-56.22-56.219V314.043c0-30.998 25.22-56.217 56.22-56.217s56.22 25.219 56.22 56.217V429.78c-.001 30.999-25.221 56.219-56.22 56.219zm0-208.173c-19.972 0-36.22 16.247-36.22 36.217V429.78c0 19.971 16.249 36.219 36.22 36.219S231 449.751 231 429.78V314.043c0-19.97-16.248-36.217-36.219-36.217z"/><path d="M198.956 110c-19.934 0-36.22-16.286-36.22-36.22s16.286-36.22 36.22-36.22 36.22 16.286 36.22 36.22V110h-36.22z" fill="#36c5f0"/><path d="M235.176 120h-36.22c-25.486 0-46.22-20.734-46.22-46.22s20.734-46.22 46.22-46.22 46.22 20.734 46.22 46.22V110c0 5.523-4.477 10-10 10zm-36.22-72.439c-14.458 0-26.22 11.762-26.22 26.22S184.499 100 198.956 100h26.22V73.78c0-14.457-11.762-26.219-26.22-26.219z"/><path d="M194.781 140c25.437 0 46.22 20.781 46.22 46.22 0 25.438-20.783 46.219-46.22 46.219H79.045c-25.437 0-46.219-20.781-46.219-46.219 0-25.438 20.782-46.22 46.219-46.22h115.736z" fill="#36c5f0"/><path d="M194.781 242.438H79.045c-30.999 0-56.219-25.22-56.219-56.219 0-31 25.22-56.22 56.219-56.22H194.78c31 0 56.22 25.22 56.22 56.22s-25.22 56.219-56.219 56.219zM79.045 150c-19.971 0-36.219 16.248-36.219 36.22 0 19.971 16.248 36.219 36.219 36.219H194.78c19.972 0 36.22-16.248 36.22-36.219 0-19.972-16.248-36.22-36.22-36.22H79.045z"/><path d="M394.563 197.956c0-19.935 16.283-36.22 36.219-36.22 19.934 0 36.217 16.285 36.217 36.22 0 19.934-16.283 36.219-36.217 36.219h-36.219v-36.219z" fill="#2eb67d"/><path d="M430.781 244.175h-36.219c-5.522 0-10-4.477-10-10v-36.219c0-25.486 20.733-46.22 46.219-46.22 25.484 0 46.217 20.734 46.217 46.22 0 25.485-20.732 46.219-46.217 46.219zm-26.218-20h26.219c14.456 0 26.217-11.762 26.217-26.219 0-14.458-11.761-26.22-26.217-26.22-14.457 0-26.219 11.762-26.219 26.22v26.219z"/><path d="M363.439 197.956c0 25.438-20.781 46.219-46.219 46.219S271 223.394 271 197.956V82.221c0-25.438 20.783-46.22 46.221-46.22s46.219 20.782 46.219 46.22v115.735h-.001z" fill="#2eb67d"/><path d="M317.221 254.175c-31 0-56.221-25.22-56.221-56.219V82.221c0-31 25.221-56.22 56.221-56.22 30.999 0 56.219 25.22 56.219 56.22v115.735c-.001 30.999-25.22 56.219-56.219 56.219zm0-208.174c-19.973 0-36.221 16.248-36.221 36.22v115.735c0 19.971 16.248 36.219 36.221 36.219 19.971 0 36.219-16.248 36.219-36.219V82.221c-.001-19.972-16.249-36.22-36.219-36.22z"/><path d="M317.221 397.562c19.934 0 36.219 16.285 36.219 36.22 0 19.933-16.285 36.219-36.219 36.219S281 453.714 281 433.781v-36.22h36.221z" fill="#ecb22e"/><path d="M317.221 480C291.734 480 271 459.267 271 433.781v-36.22c0-5.522 4.478-10 10-10h36.221c25.485 0 46.219 20.734 46.219 46.22S342.706 480 317.221 480zM291 407.562v26.22C291 448.238 302.763 460 317.221 460c14.457 0 26.219-11.762 26.219-26.219 0-14.458-11.762-26.22-26.219-26.22H291z"/><path d="M317.221 366.44c-25.438 0-46.221-20.782-46.221-46.222C271 294.782 291.783 274 317.221 274h115.736c25.436 0 46.217 20.782 46.217 46.218 0 25.439-20.781 46.222-46.217 46.222H317.221z" fill="#ecb22e"/><path d="M432.957 376.44H317.221c-31 0-56.221-25.221-56.221-56.222C261 289.219 286.221 264 317.221 264h115.736c30.998 0 56.217 25.219 56.217 56.218 0 31.002-25.219 56.222-56.217 56.222zm-115.736-92.439c-19.972 0-36.221 16.247-36.221 36.218 0 19.973 16.249 36.222 36.221 36.222h115.736c19.97 0 36.217-16.249 36.217-36.222 0-19.971-16.247-36.218-36.217-36.218H317.221z"/></svg>